<?xml version="1.0" encoding="UTF-8" standalone="no"?>
<!DOCTYPE svg PUBLIC "-//W3C//DTD SVG 1.1//EN" "http://www.w3.org/Graphics/SVG/1.1/DTD/svg11.dtd">
<svg width="100%" height="100%" viewBox="0 0 2424 452" version="1.1" xmlns="http://www.w3.org/2000/svg" xmlns:xlink="http://www.w3.org/1999/xlink" xml:space="preserve" xmlns:serif="http://www.serif.com/" style="fill-rule:evenodd;clip-rule:evenodd;stroke-linejoin:round;stroke-miterlimit:2;">
    <g transform="matrix(1,0,0,1,-540.3325,-852.497917)">
        <g transform="matrix(4.166667,0,0,4.166667,0,0)">
            <g transform="matrix(1,0,0,1,240.0098,255.1225)">
                <path d="M0,-5.046C-0.835,-5.046 -2.899,-4.784 -4.568,-4.484C-21.523,-1.411 -31.67,8.556 -35.887,26.429C-36.414,28.565 -36.897,30.401 -36.941,30.476C-37.029,30.514 -37.205,29.652 -37.38,28.528C-37.82,25.343 -40.06,18.336 -41.685,15.001C-45.375,7.544 -51.612,1.549 -58.86,-1.486C-63.428,-3.397 -67.777,-4.559 -71.818,-4.896C-73.311,-5.046 -74.497,-5.196 -74.409,-5.271C-74.322,-5.346 -72.565,-5.683 -70.456,-5.983C-65.712,-6.695 -60.441,-8.306 -56.883,-10.142C-53.237,-12.053 -48.186,-16.212 -45.77,-19.322C-41.949,-24.194 -38.742,-31.538 -37.6,-38.095C-37.117,-40.681 -36.985,-41.018 -36.722,-40.081C-34.394,-31.575 -33.559,-29.065 -32.241,-26.254C-26.751,-14.788 -16.999,-8.044 -2.899,-5.945C1.625,-5.308 2.416,-5.046 0,-5.046M-53.686,21.135C-54.914,21.181 -57.834,22.016 -59.293,22.757C-63.232,24.75 -66.013,28.944 -67.195,34.644C-67.426,35.825 -67.681,36.636 -67.751,36.451C-67.82,36.266 -68.098,35.13 -68.376,33.925C-69.998,26.905 -74.007,22.618 -79.985,21.436L-81.955,21.042L-80.008,20.649C-75.513,19.745 -72.223,17.289 -70.137,13.28C-69.257,11.589 -68.284,8.646 -68.029,6.908C-67.936,6.259 -67.797,5.657 -67.728,5.518C-67.658,5.402 -67.45,6.005 -67.287,6.885C-66.314,12.168 -63.58,16.756 -60.22,18.795C-58.668,19.722 -56.721,20.417 -54.59,20.811C-53.64,20.996 -53.269,21.112 -53.686,21.135M-85.081,7.388C-85.821,7.025 -86.526,6.805 -87.18,6.741C-87.422,6.712 -87.614,6.684 -87.6,6.67C-87.586,6.655 -87.301,6.591 -86.96,6.534C-86.191,6.399 -85.337,6.093 -84.761,5.745C-84.17,5.382 -83.352,4.592 -82.961,4.001C-82.342,3.076 -81.822,1.682 -81.637,0.436C-81.559,-0.055 -81.538,-0.119 -81.495,0.059C-81.118,1.674 -80.983,2.151 -80.769,2.685C-79.88,4.862 -78.3,6.143 -76.016,6.541C-75.283,6.662 -75.155,6.712 -75.547,6.712C-75.682,6.712 -76.016,6.762 -76.287,6.819C-79.033,7.402 -80.677,9.295 -81.36,12.689C-81.445,13.095 -81.524,13.443 -81.531,13.458C-81.545,13.465 -81.573,13.301 -81.602,13.088C-81.673,12.483 -82.036,11.152 -82.299,10.519C-82.897,9.103 -83.907,7.965 -85.081,7.388M-0.996,-50.523L-95.663,-50.523C-103.763,-50.523 -110.33,-43.956 -110.33,-35.856L-110.33,30.811C-110.33,38.911 -103.763,45.477 -95.663,45.477L-0.996,45.477C7.104,45.477 13.67,38.911 13.67,30.811L13.67,-35.856C13.67,-43.956 7.104,-50.523 -0.996,-50.523" style="fill:white;fill-rule:nonzero;"/>
            </g>
        </g>
        <g transform="matrix(4.166667,0,0,4.166667,0,0)">
            <g transform="matrix(0.289417,0,0,0.289417,131.283485,173.12476)">
                <g transform="matrix(0.373685,0,0,0.373685,1143.774326,303.154641)">
                    <g transform="matrix(133.333333,0,0,133.333333,1399.468186,247.370414)">
                    </g>
                    <text x="1258.648px" y="247.37px" style="font-family:'ArialMT', 'Arial', sans-serif;font-size:133.333px;fill:white;">by</text>
                </g>
                <g id="AXDN-Schriftzug" serif:id="AXDN Schriftzug" transform="matrix(0.105909,0,0,0.105909,1659.478205,148.116882)">
                    <g transform="matrix(1,0,0,1,0,-4)">
                        <path d="M3117,1636L3117,2101L2717,1636L2591,1636L2591,2352L2730,2352L2730,1894L3122,2352L3252,2352L3253,1636L3117,1636Z" style="fill:white;"/>
                    </g>
                    <g transform="matrix(1,0,0,1,0,-2)">
                        <path d="M1975,1779L1834,1779L1834,2350L2192,2350C2383.993,2350 2492.357,2199.739 2492.357,2050.643L2492.357,1941C2492.357,1773.596 2347.916,1633.956 2190.312,1633.956C2032.709,1633.956 1837,1634 1837,1634L1975,1779C1975,1779 2077.422,1780 2142,1780C2291.578,1780 2347.92,1875.441 2347.92,1994.92C2347.92,2158.4 2275.359,2216.068 2143.689,2217.152C2022.094,2218.154 1974,2218 1974,2218L1975,1779Z" style="fill:white;"/>
                    </g>
                    <g transform="matrix(1,0,0,1,0,-6)">
                        <path d="M156,2354L498,1638L635,1638L986,2354L815,2354L569,1830L316,2354L156,2354Z" style="fill:white;"/>
                    </g>
                    <path d="M1010,2348L1289,1986L1013,1632L1199,1632L1378,1873L1564,1632L1747,1632L1473,1986L1748,2348L1567,2348L1380,2089L1191,2348L1010,2348Z" style="fill:white;"/>
                </g>
            </g>
        </g>
        <g transform="matrix(4.166667,0,0,4.166667,0,0)">
            <g transform="matrix(1,0,0,1,302.4141,237.7298)">
                <path d="M0,29.158L12.96,29.158L9.288,3.994L6.804,-16.958L6.264,-16.958L3.78,3.994L0,29.158ZM16.308,51.515L14.04,36.719L-0.973,36.719L-3.132,51.515C-3.349,52.92 -4.212,53.676 -5.508,53.676L-10.044,53.676C-11.557,53.676 -12.313,52.486 -12.097,50.974L-0.864,-22.143C-0.648,-23.762 0.216,-24.518 1.728,-24.518L11.448,-24.518C12.96,-24.518 13.716,-23.762 13.932,-22.143L25.164,50.974C25.38,52.595 24.624,53.676 23.112,53.676L18.576,53.676C17.388,53.676 16.416,52.92 16.308,51.515" style="fill:white;fill-rule:nonzero;"/>
            </g>
        </g>
        <g transform="matrix(4.166667,0,0,4.166667,0,0)">
            <g transform="matrix(1,0,0,1,342.1562,215.5894)">
                <path d="M0,73.439C0,74.951 -0.863,75.816 -2.376,75.816L-6.695,75.816C-8.208,75.816 -9.071,74.951 -9.071,73.439L-9.071,-0.11C-9.071,-1.622 -8.208,-2.377 -6.695,-2.377L-2.376,-2.377C-0.863,-2.377 0,-1.622 0,-0.11L0,73.439Z" style="fill:white;fill-rule:nonzero;"/>
            </g>
        </g>
        <g transform="matrix(4.166667,0,0,4.166667,0,0)">
            <g transform="matrix(1,0,0,1,393.1318,301.4486)">
                <path d="M0,-7.344C1.512,-7.344 2.268,-6.479 2.268,-4.967L2.268,-2.375C2.268,-0.864 1.512,0 0,0L-44.281,0C-45.793,0 -46.657,-0.864 -46.657,-2.375L-46.657,-4.967C-46.657,-6.479 -45.793,-7.344 -44.281,-7.344L0,-7.344Z" style="fill:white;fill-rule:nonzero;"/>
            </g>
        </g>
        <g transform="matrix(4.166667,0,0,4.166667,0,0)">
            <g transform="matrix(1,0,0,1,426.7178,233.0838)">
                <path d="M0,56.054C0,57.456 -0.756,58.322 -2.268,58.322L-5.939,58.322C-7.452,58.322 -8.208,57.456 -8.208,56.054L-8.208,10.908C-8.208,6.372 -9.504,4.861 -13.067,4.861C-16.74,4.861 -18.684,6.804 -18.684,11.34L-18.684,56.054C-18.684,57.456 -19.548,58.322 -21.06,58.322L-24.624,58.322C-26.136,58.322 -27,57.456 -27,56.054L-27,0.54C-27,-0.971 -26.136,-1.727 -24.624,-1.727L-21.06,-1.727C-19.548,-1.727 -18.684,-0.971 -18.684,0.54L-18.684,1.945C-15.983,-0.757 -12.204,-2.268 -8.855,-2.268C-4.104,-2.268 0,0.756 0,7.668L0,56.054Z" style="fill:white;fill-rule:nonzero;"/>
            </g>
        </g>
        <g transform="matrix(4.166667,0,0,4.166667,0,0)">
            <g transform="matrix(1,0,0,1,443.6729,215.1574)">
                <path d="M0,73.871C0,75.383 -0.864,76.248 -2.376,76.248L-5.94,76.248C-7.452,76.248 -8.316,75.383 -8.316,73.871L-8.316,18.467C-8.316,16.955 -7.452,16.199 -5.94,16.199L-2.376,16.199C-0.864,16.199 0,16.955 0,18.467L0,73.871ZM-4.212,-2.377C-1.08,-2.377 1.08,-0.218 1.08,2.914C1.08,5.938 -1.08,8.099 -4.212,8.099C-7.236,8.099 -9.396,5.938 -9.396,2.914C-9.396,-0.218 -7.236,-2.377 -4.212,-2.377" style="fill:white;fill-rule:nonzero;"/>
            </g>
        </g>
        <g transform="matrix(4.166667,0,0,4.166667,0,0)">
            <g transform="matrix(1,0,0,1,460.6279,265.1593)">
                <path d="M0,13.502C0,18.145 1.188,19.549 4.752,19.549C8.425,19.549 10.477,17.713 10.477,13.178L10.477,-20.735C10.477,-25.271 8.425,-27.215 4.752,-27.215C1.188,-27.215 0,-25.703 0,-21.167L0,13.502ZM18.685,33.914C18.685,42.877 15.444,47.846 4.104,47.846L-1.187,47.846C-2.7,47.846 -3.563,47.09 -3.563,45.578L-3.563,43.311C-3.563,41.799 -2.7,40.934 -1.187,40.934L4.104,40.934C9.181,40.934 10.477,38.342 10.477,33.807L10.477,22.574C7.668,25.273 3.889,26.785 0.54,26.785C-4.212,26.785 -8.315,23.762 -8.315,16.85L-8.315,-24.407C-8.315,-31.319 -4.212,-34.344 0.54,-34.344C3.889,-34.344 7.668,-32.832 10.477,-30.131L10.477,-31.535C10.477,-33.047 11.232,-33.803 12.744,-33.803L16.416,-33.803C17.929,-33.803 18.685,-33.047 18.685,-31.535L18.685,33.914Z" style="fill:white;fill-rule:nonzero;"/>
            </g>
        </g>
        <g transform="matrix(4.166667,0,0,4.166667,0,0)">
            <g transform="matrix(1,0,0,1,514.9512,207.2708)">
                <path d="M0,81.867C0,83.269 -0.756,84.135 -2.269,84.135L-5.94,84.135C-7.452,84.135 -8.208,83.269 -8.208,81.867L-8.208,36.721C-8.208,32.185 -9.504,30.674 -13.068,30.674C-16.74,30.674 -18.685,32.617 -18.685,37.153L-18.685,81.867C-18.685,83.269 -19.549,84.135 -21.061,84.135L-24.624,84.135C-26.137,84.135 -27,83.269 -27,81.867L-27,0.001C-27,-1.512 -26.137,-2.268 -24.624,-2.268L-21.061,-2.268C-19.549,-2.268 -18.685,-1.512 -18.685,0.001L-18.685,27.758C-15.984,25.056 -12.204,23.545 -8.856,23.545C-4.104,23.545 0,26.569 0,33.481L0,81.867Z" style="fill:white;fill-rule:nonzero;"/>
            </g>
        </g>
        <g transform="matrix(4.166667,0,0,4.166667,0,0)">
            <g transform="matrix(1,0,0,1,526.8301,273.2606)">
                <path d="M0,-41.904L0,-57.781C0,-59.293 0.863,-60.049 2.376,-60.049L5.939,-60.049C7.452,-60.049 8.315,-59.293 8.315,-57.781L8.315,-41.904L15.12,-41.904C16.632,-41.904 17.496,-41.148 17.496,-39.636L17.496,-37.369C17.496,-35.857 16.632,-34.992 15.12,-34.992L8.315,-34.992L8.315,3.996C8.315,8.641 9.504,11.233 14.688,11.233L17.28,11.233C18.792,11.233 19.656,11.989 19.656,13.5L19.656,15.768C19.656,17.28 18.792,18.145 17.28,18.145L14.688,18.145C3.239,18.145 0,13.176 0,4.104L0,-34.992L-4.645,-34.992C-6.157,-34.992 -7.021,-35.857 -7.021,-37.369L-7.021,-39.636C-7.021,-41.148 -6.157,-41.904 -4.645,-41.904L0,-41.904Z" style="fill:white;fill-rule:nonzero;"/>
            </g>
        </g>
        <g transform="matrix(4.166667,0,0,4.166667,0,0)">
            <g transform="matrix(1,0,0,1,564.6289,230.8155)">
                <path d="M0,61.129C-10.477,61.129 -13.5,56.594 -13.5,48.277L-13.5,41.365C-13.5,39.854 -12.744,38.988 -11.232,38.988L-7.561,38.988C-6.048,38.988 -5.292,39.854 -5.292,41.365L-5.292,48.17C-5.292,52.705 -3.672,54.217 0,54.217C3.563,54.217 5.184,52.705 5.184,48.17C5.184,41.473 4.32,40.934 0.432,37.045L-7.776,29.053C-11.664,25.274 -13.5,22.033 -13.5,12.853C-13.5,4.537 -10.477,0 0,0C10.368,0 13.5,4.537 13.5,12.853L13.5,19.765C13.5,21.277 12.636,22.033 11.124,22.033L7.56,22.033C6.048,22.033 5.184,21.277 5.184,19.765L5.184,12.961C5.184,8.316 3.563,6.912 0,6.912C-3.672,6.912 -5.292,8.316 -5.292,12.961C-5.292,19.656 -4.429,20.089 -0.54,24.085L7.668,32.076C11.556,35.858 13.5,39.098 13.5,48.277C13.5,56.594 10.368,61.129 0,61.129" style="fill:white;fill-rule:nonzero;"/>
            </g>
        </g>
    </g>
</svg>
