<?xml version="1.0" encoding="UTF-8" standalone="no"?>
<!DOCTYPE svg PUBLIC "-//W3C//DTD SVG 1.1//EN" "http://www.w3.org/Graphics/SVG/1.1/DTD/svg11.dtd">
<svg width="100%" height="100%" viewBox="0 0 2422 451" version="1.1" xmlns="http://www.w3.org/2000/svg" xmlns:xlink="http://www.w3.org/1999/xlink" xml:space="preserve" xmlns:serif="http://www.serif.com/" style="fill-rule:evenodd;clip-rule:evenodd;stroke-linejoin:round;stroke-miterlimit:2;">
    <g transform="matrix(1,0,0,1,-541.666667,-1516.666667)">
        <g transform="matrix(4.166667,0,0,4.166667,0,0)">
            <g transform="matrix(0.289417,0,0,0.289417,131.283485,332.24476)">
                <g transform="matrix(0.373685,0,0,0.373685,1143.774326,303.154641)">
                    <g transform="matrix(133.333333,0,0,133.333333,1399.468186,247.370414)">
                    </g>
                    <text x="1258.648px" y="247.37px" style="font-family:'ArialMT', 'Arial', sans-serif;font-size:133.333px;fill:white;">by</text>
                </g>
                <g id="AXDN-Schriftzug" serif:id="AXDN Schriftzug" transform="matrix(0.105909,0,0,0.105909,1659.478205,148.116882)">
                    <g transform="matrix(1,0,0,1,0,-4)">
                        <path d="M3117,1636L3117,2101L2717,1636L2591,1636L2591,2352L2730,2352L2730,1894L3122,2352L3252,2352L3253,1636L3117,1636Z" style="fill:white;"/>
                    </g>
                    <g transform="matrix(1,0,0,1,0,-2)">
                        <path d="M1975,1779L1834,1779L1834,2350L2192,2350C2383.993,2350 2492.357,2199.739 2492.357,2050.643L2492.357,1941C2492.357,1773.596 2347.916,1633.956 2190.312,1633.956C2032.709,1633.956 1837,1634 1837,1634L1975,1779C1975,1779 2077.422,1780 2142,1780C2291.578,1780 2347.92,1875.441 2347.92,1994.92C2347.92,2158.4 2275.359,2216.068 2143.689,2217.152C2022.094,2218.154 1974,2218 1974,2218L1975,1779Z" style="fill:white;"/>
                    </g>
                    <g transform="matrix(1,0,0,1,0,-6)">
                        <path d="M156,2354L498,1638L635,1638L986,2354L815,2354L569,1830L316,2354L156,2354Z" style="fill:white;"/>
                    </g>
                    <path d="M1010,2348L1289,1986L1013,1632L1199,1632L1378,1873L1564,1632L1747,1632L1473,1986L1748,2348L1567,2348L1380,2089L1191,2348L1010,2348Z" style="fill:white;"/>
                </g>
            </g>
        </g>
        <g transform="matrix(4.166667,0,0,4.166667,0,0)">
            <g transform="matrix(101.408462,-101.408462,-101.408462,-101.408462,141.295776,462.704239)">
                <path d="M0.503,0.47C0.463,0.51 0.399,0.51 0.359,0.47L0.03,0.141C-0.01,0.101 -0.01,0.037 0.03,-0.003L0.497,-0.47C0.537,-0.51 0.601,-0.51 0.641,-0.47L0.97,-0.141C1.01,-0.101 1.01,-0.037 0.97,0.003L0.503,0.47Z" style="fill:url(#_Linear1);fill-rule:nonzero;"/>
            </g>
        </g>
        <g transform="matrix(4.166667,0,0,4.166667,0,0)">
            <g transform="matrix(1,0,0,1,302.4141,396.8498)">
                <path d="M0,29.158L12.96,29.158L9.288,3.994L6.804,-16.958L6.264,-16.958L3.78,3.994L0,29.158ZM16.308,51.515L14.04,36.719L-0.973,36.719L-3.132,51.515C-3.349,52.92 -4.212,53.676 -5.508,53.676L-10.044,53.676C-11.557,53.676 -12.313,52.486 -12.097,50.974L-0.864,-22.143C-0.648,-23.762 0.216,-24.518 1.728,-24.518L11.448,-24.518C12.96,-24.518 13.716,-23.762 13.932,-22.143L25.164,50.974C25.38,52.595 24.624,53.676 23.112,53.676L18.576,53.676C17.388,53.676 16.416,52.92 16.308,51.515" style="fill:white;fill-rule:nonzero;"/>
            </g>
        </g>
        <g transform="matrix(4.166667,0,0,4.166667,0,0)">
            <g transform="matrix(1,0,0,1,342.1562,374.7094)">
                <path d="M0,73.439C0,74.951 -0.863,75.816 -2.376,75.816L-6.695,75.816C-8.208,75.816 -9.071,74.951 -9.071,73.439L-9.071,-0.11C-9.071,-1.622 -8.208,-2.377 -6.695,-2.377L-2.376,-2.377C-0.863,-2.377 0,-1.622 0,-0.11L0,73.439Z" style="fill:white;fill-rule:nonzero;"/>
            </g>
        </g>
        <g transform="matrix(4.166667,0,0,4.166667,0,0)">
            <g transform="matrix(1,0,0,1,393.1318,460.5686)">
                <path d="M0,-7.344C1.512,-7.344 2.268,-6.479 2.268,-4.967L2.268,-2.375C2.268,-0.864 1.512,0 0,0L-44.281,0C-45.793,0 -46.657,-0.864 -46.657,-2.375L-46.657,-4.967C-46.657,-6.479 -45.793,-7.344 -44.281,-7.344L0,-7.344Z" style="fill:white;fill-rule:nonzero;"/>
            </g>
        </g>
        <g transform="matrix(4.166667,0,0,4.166667,0,0)">
            <g transform="matrix(1,0,0,1,426.7178,392.2038)">
                <path d="M0,56.054C0,57.456 -0.756,58.322 -2.268,58.322L-5.939,58.322C-7.452,58.322 -8.208,57.456 -8.208,56.054L-8.208,10.908C-8.208,6.372 -9.504,4.861 -13.067,4.861C-16.74,4.861 -18.684,6.804 -18.684,11.34L-18.684,56.054C-18.684,57.456 -19.548,58.322 -21.06,58.322L-24.624,58.322C-26.136,58.322 -27,57.456 -27,56.054L-27,0.54C-27,-0.971 -26.136,-1.727 -24.624,-1.727L-21.06,-1.727C-19.548,-1.727 -18.684,-0.971 -18.684,0.54L-18.684,1.945C-15.983,-0.757 -12.204,-2.268 -8.855,-2.268C-4.104,-2.268 0,0.756 0,7.668L0,56.054Z" style="fill:white;fill-rule:nonzero;"/>
            </g>
        </g>
        <g transform="matrix(4.166667,0,0,4.166667,0,0)">
            <g transform="matrix(1,0,0,1,443.6729,374.2774)">
                <path d="M0,73.871C0,75.383 -0.864,76.248 -2.376,76.248L-5.94,76.248C-7.452,76.248 -8.316,75.383 -8.316,73.871L-8.316,18.467C-8.316,16.955 -7.452,16.199 -5.94,16.199L-2.376,16.199C-0.864,16.199 0,16.955 0,18.467L0,73.871ZM-4.212,-2.377C-1.08,-2.377 1.08,-0.218 1.08,2.914C1.08,5.938 -1.08,8.099 -4.212,8.099C-7.236,8.099 -9.396,5.938 -9.396,2.914C-9.396,-0.218 -7.236,-2.377 -4.212,-2.377" style="fill:white;fill-rule:nonzero;"/>
            </g>
        </g>
        <g transform="matrix(4.166667,0,0,4.166667,0,0)">
            <g transform="matrix(1,0,0,1,460.6279,424.2793)">
                <path d="M0,13.502C0,18.145 1.188,19.549 4.752,19.549C8.425,19.549 10.477,17.713 10.477,13.178L10.477,-20.735C10.477,-25.271 8.425,-27.215 4.752,-27.215C1.188,-27.215 0,-25.703 0,-21.167L0,13.502ZM18.685,33.914C18.685,42.877 15.444,47.846 4.104,47.846L-1.187,47.846C-2.7,47.846 -3.563,47.09 -3.563,45.578L-3.563,43.311C-3.563,41.799 -2.7,40.934 -1.187,40.934L4.104,40.934C9.181,40.934 10.477,38.342 10.477,33.807L10.477,22.574C7.668,25.273 3.889,26.785 0.54,26.785C-4.212,26.785 -8.315,23.762 -8.315,16.85L-8.315,-24.407C-8.315,-31.319 -4.212,-34.344 0.54,-34.344C3.889,-34.344 7.668,-32.832 10.477,-30.131L10.477,-31.535C10.477,-33.047 11.232,-33.803 12.744,-33.803L16.416,-33.803C17.929,-33.803 18.685,-33.047 18.685,-31.535L18.685,33.914Z" style="fill:white;fill-rule:nonzero;"/>
            </g>
        </g>
        <g transform="matrix(4.166667,0,0,4.166667,0,0)">
            <g transform="matrix(1,0,0,1,514.9512,366.3908)">
                <path d="M0,81.867C0,83.269 -0.756,84.135 -2.269,84.135L-5.94,84.135C-7.452,84.135 -8.208,83.269 -8.208,81.867L-8.208,36.721C-8.208,32.185 -9.504,30.674 -13.068,30.674C-16.74,30.674 -18.685,32.617 -18.685,37.153L-18.685,81.867C-18.685,83.269 -19.549,84.135 -21.061,84.135L-24.624,84.135C-26.137,84.135 -27,83.269 -27,81.867L-27,0.001C-27,-1.512 -26.137,-2.268 -24.624,-2.268L-21.061,-2.268C-19.549,-2.268 -18.685,-1.512 -18.685,0.001L-18.685,27.758C-15.984,25.056 -12.204,23.545 -8.856,23.545C-4.104,23.545 0,26.569 0,33.481L0,81.867Z" style="fill:white;fill-rule:nonzero;"/>
            </g>
        </g>
        <g transform="matrix(4.166667,0,0,4.166667,0,0)">
            <g transform="matrix(1,0,0,1,526.8301,432.3806)">
                <path d="M0,-41.904L0,-57.781C0,-59.293 0.863,-60.049 2.376,-60.049L5.939,-60.049C7.452,-60.049 8.315,-59.293 8.315,-57.781L8.315,-41.904L15.12,-41.904C16.632,-41.904 17.496,-41.148 17.496,-39.636L17.496,-37.369C17.496,-35.857 16.632,-34.992 15.12,-34.992L8.315,-34.992L8.315,3.996C8.315,8.641 9.504,11.233 14.688,11.233L17.28,11.233C18.792,11.233 19.656,11.989 19.656,13.5L19.656,15.768C19.656,17.28 18.792,18.145 17.28,18.145L14.688,18.145C3.239,18.145 0,13.176 0,4.104L0,-34.992L-4.645,-34.992C-6.157,-34.992 -7.021,-35.857 -7.021,-37.369L-7.021,-39.636C-7.021,-41.148 -6.157,-41.904 -4.645,-41.904L0,-41.904Z" style="fill:white;fill-rule:nonzero;"/>
            </g>
        </g>
        <g transform="matrix(4.166667,0,0,4.166667,0,0)">
            <g transform="matrix(1,0,0,1,564.6289,389.9355)">
                <path d="M0,61.129C-10.477,61.129 -13.5,56.594 -13.5,48.277L-13.5,41.365C-13.5,39.854 -12.744,38.988 -11.232,38.988L-7.561,38.988C-6.048,38.988 -5.292,39.854 -5.292,41.365L-5.292,48.17C-5.292,52.705 -3.672,54.217 0,54.217C3.563,54.217 5.184,52.705 5.184,48.17C5.184,41.473 4.32,40.934 0.432,37.045L-7.776,29.053C-11.664,25.274 -13.5,22.033 -13.5,12.853C-13.5,4.537 -10.477,0 0,0C10.368,0 13.5,4.537 13.5,12.853L13.5,19.765C13.5,21.277 12.636,22.033 11.124,22.033L7.56,22.033C6.048,22.033 5.184,21.277 5.184,19.765L5.184,12.961C5.184,8.316 3.563,6.912 0,6.912C-3.672,6.912 -5.292,8.316 -5.292,12.961C-5.292,19.656 -4.429,20.089 -0.54,24.085L7.668,32.076C11.556,35.858 13.5,39.098 13.5,48.277C13.5,56.594 10.368,61.129 0,61.129" style="fill:white;fill-rule:nonzero;"/>
            </g>
        </g>
        <g transform="matrix(4.166667,0,0,4.166667,0,0)">
            <g transform="matrix(1,0,0,1,158.6924,427.4319)">
                <path d="M0,-12.473C-0.185,-11.228 -0.704,-9.833 -1.323,-8.908C-1.715,-8.318 -2.533,-7.528 -3.124,-7.165C-3.7,-6.816 -4.554,-6.51 -5.322,-6.375C-5.664,-6.318 -5.949,-6.254 -5.963,-6.24C-5.977,-6.226 -5.785,-6.197 -5.543,-6.169C-4.888,-6.105 -4.184,-5.884 -3.444,-5.521C-2.27,-4.945 -1.259,-3.806 -0.662,-2.39C-0.398,-1.757 -0.036,-0.426 0.036,0.178C0.064,0.392 0.092,0.555 0.107,0.548C0.114,0.534 0.192,0.185 0.277,-0.22C0.961,-3.614 2.604,-5.507 5.351,-6.09C5.621,-6.147 5.956,-6.197 6.091,-6.197C6.482,-6.197 6.354,-6.247 5.621,-6.368C3.337,-6.766 1.758,-8.047 0.868,-10.224C0.655,-10.758 0.519,-11.235 0.142,-12.85C0.1,-13.028 0.078,-12.964 0,-12.473" style="fill:white;fill-rule:nonzero;"/>
            </g>
        </g>
        <g transform="matrix(4.166667,0,0,4.166667,0,0)">
            <g transform="matrix(1,0,0,1,172.6022,451.0435)">
                <path d="M0,-31.003C-0.07,-30.864 -0.209,-30.262 -0.301,-29.613C-0.556,-27.875 -1.529,-24.932 -2.41,-23.241C-4.495,-19.232 -7.785,-16.776 -12.281,-15.872L-14.227,-15.479L-12.257,-15.085C-6.279,-13.903 -2.271,-9.616 -0.649,-2.595C-0.371,-1.391 -0.093,-0.255 -0.023,-0.07C0.046,0.116 0.301,-0.695 0.533,-1.877C1.715,-7.577 4.495,-11.771 8.434,-13.764C9.894,-14.505 12.813,-15.339 14.042,-15.386C14.459,-15.409 14.088,-15.525 13.138,-15.71C11.006,-16.104 9.06,-16.799 7.507,-17.726C4.148,-19.765 1.413,-24.353 0.44,-29.636C0.278,-30.516 0.07,-31.119 0,-31.003" style="fill:white;fill-rule:nonzero;"/>
            </g>
        </g>
        <g transform="matrix(4.166667,0,0,4.166667,0,0)">
            <g transform="matrix(1,0,0,1,202.7297,442.1132)">
                <path d="M0,-65.686C-1.142,-59.129 -4.349,-51.784 -8.17,-46.913C-10.586,-43.803 -15.637,-39.644 -19.283,-37.733C-22.841,-35.897 -28.112,-34.285 -32.856,-33.574C-34.965,-33.274 -36.722,-32.936 -36.809,-32.862C-36.897,-32.787 -35.711,-32.637 -34.218,-32.487C-30.177,-32.15 -25.828,-30.988 -21.26,-29.077C-14.012,-26.042 -7.775,-20.047 -4.085,-12.59C-2.46,-9.255 -0.22,-2.248 0.22,0.937C0.395,2.061 0.571,2.923 0.659,2.886C0.703,2.811 1.186,0.975 1.713,-1.161C5.93,-19.035 16.077,-29.002 33.032,-32.075C34.701,-32.374 36.765,-32.637 37.6,-32.637C40.016,-32.637 39.225,-32.899 34.701,-33.536C20.601,-35.634 10.85,-42.379 5.359,-53.845C4.041,-56.656 3.207,-59.166 0.879,-67.672C0.615,-68.609 0.483,-68.272 0,-65.686" style="fill:white;fill-rule:nonzero;"/>
            </g>
        </g>
    </g>
    <defs>
        <linearGradient id="_Linear1" x1="0" y1="0" x2="1" y2="0" gradientUnits="userSpaceOnUse" gradientTransform="matrix(1,0,0,-1,0,0)"><stop offset="0" style="stop-color:rgb(102,45,145);stop-opacity:1"/><stop offset="1" style="stop-color:rgb(212,20,90);stop-opacity:1"/></linearGradient>
    </defs>
</svg>
