<?xml version="1.0" encoding="UTF-8"?> <svg xmlns="http://www.w3.org/2000/svg" xmlns:xlink="http://www.w3.org/1999/xlink" viewBox="0 0 401.86 92.02"><defs><style>.a6f5df81-e07a-4a8e-81c1-96f2c6567d9a{fill:url(#ab4aac36-d1c5-47e3-be7f-e997138b2345);}.a9fb8653-663c-4748-bfa8-2fc10dc843c0{fill:#fff;}.a4c15f9f-06af-4b5e-8566-15f7b33bdee0{fill:#fff;}</style><linearGradient id="ab4aac36-d1c5-47e3-be7f-e997138b2345" x1="9.04" y1="9.21" x2="122.38" y2="82.81" gradientUnits="userSpaceOnUse"><stop offset="0" stop-color="#fff"></stop><stop offset="1" stop-color="#fff"></stop></linearGradient></defs><g id="a37eda82-893f-4d8b-82df-2d49f3bffa4b" data-name="Ebene 2"><g id="f88a5cff-92fe-49c3-a9f9-ca1063aa33be" data-name="Ebene 1"><path class="a6f5df81-e07a-4a8e-81c1-96f2c6567d9a" d="M60.85,65.72a13.12,13.12,0,0,1,.07-13.2,19.72,19.72,0,0,0-1.78-39.37H32.86a19.72,19.72,0,1,0,0,39.43h.52a39.69,39.69,0,0,0,0,13.14h-.52A32.86,32.86,0,1,1,32.86,0H59.14a32.87,32.87,0,0,1,1.71,65.71ZM70.58,26.3a13.14,13.14,0,0,1-.07,13.2,19.72,19.72,0,0,0,1.77,39.37H98.57a19.72,19.72,0,0,0,0-39.43H98A39.69,39.69,0,0,0,98,26.3h.53a32.86,32.86,0,0,1,0,65.71H72.28a32.87,32.87,0,1,1-1.7-65.71Z"></path><path class="a9fb8653-663c-4748-bfa8-2fc10dc843c0" d="M160.18,64.61V20.1a7,7,0,0,1,1.37-4.67,4.68,4.68,0,0,1,3.71-1.58A4.88,4.88,0,0,1,169,15.42a6.74,6.74,0,0,1,1.43,4.68V64.61A6.69,6.69,0,0,1,169,69.29a4.88,4.88,0,0,1-3.74,1.56,4.65,4.65,0,0,1-3.67-1.61A6.84,6.84,0,0,1,160.18,64.61Z"></path><path class="a9fb8653-663c-4748-bfa8-2fc10dc843c0" d="M186.24,24.34A5.42,5.42,0,0,1,182.57,23a4.67,4.67,0,0,1-1.52-3.72,4.62,4.62,0,0,1,1.56-3.59,5.25,5.25,0,0,1,3.63-1.41,5.35,5.35,0,0,1,3.53,1.28,4.54,4.54,0,0,1,1.54,3.72,4.69,4.69,0,0,1-1.5,3.7A5.2,5.2,0,0,1,186.24,24.34ZM191.31,35V64.61a6.64,6.64,0,0,1-1.46,4.66,4.85,4.85,0,0,1-3.73,1.58,4.65,4.65,0,0,1-3.66-1.61,6.84,6.84,0,0,1-1.41-4.63V35.25a6.6,6.6,0,0,1,1.41-4.59,4.72,4.72,0,0,1,3.66-1.54,4.92,4.92,0,0,1,3.73,1.54A6,6,0,0,1,191.31,35Z"></path><path class="a9fb8653-663c-4748-bfa8-2fc10dc843c0" d="M211.24,34.8V36a18,18,0,0,1,5.92-5.25,15.84,15.84,0,0,1,7.39-1.67,14.69,14.69,0,0,1,7.25,1.77,11.21,11.21,0,0,1,4.78,5A12,12,0,0,1,237.9,40a42.13,42.13,0,0,1,.3,5.56v19.1a6.78,6.78,0,0,1-1.41,4.66,4.68,4.68,0,0,1-3.67,1.58,4.74,4.74,0,0,1-3.72-1.61A6.79,6.79,0,0,1,228,64.61V47.5a17.08,17.08,0,0,0-1.41-7.76q-1.41-2.68-5.62-2.69a8.32,8.32,0,0,0-5,1.64,9.37,9.37,0,0,0-3.31,4.49q-.75,2.3-.75,8.57V64.61a6.69,6.69,0,0,1-1.45,4.68,4.86,4.86,0,0,1-3.74,1.56A4.67,4.67,0,0,1,203,69.24a6.79,6.79,0,0,1-1.43-4.63V35a6.45,6.45,0,0,1,1.28-4.38,4.41,4.41,0,0,1,3.5-1.45,4.68,4.68,0,0,1,2.44.64,4.55,4.55,0,0,1,1.75,1.92A6.73,6.73,0,0,1,211.24,34.8Z"></path><path class="a9fb8653-663c-4748-bfa8-2fc10dc843c0" d="M274,66.15l-9.06-14.89-5.57,5.27v8.16a6.24,6.24,0,0,1-1.56,4.56,4.85,4.85,0,0,1-3.59,1.6,4.61,4.61,0,0,1-3.72-1.58,7,7,0,0,1-1.35-4.66V20.85a8.76,8.76,0,0,1,1.31-5.21,4.4,4.4,0,0,1,3.76-1.79A4.7,4.7,0,0,1,258,15.47a7.14,7.14,0,0,1,1.39,4.78V45.14L270.91,33A28,28,0,0,1,274.18,30a4.86,4.86,0,0,1,5.94.39,4.09,4.09,0,0,1,1.28,3.07c0,1.5-1.4,3.51-4.18,6l-5.45,5L282.3,61c.78,1.23,1.33,2.17,1.67,2.81a3.87,3.87,0,0,1,.51,1.82,5.37,5.37,0,0,1-1.34,3.85,4.61,4.61,0,0,1-3.51,1.41,4,4,0,0,1-2.9-1A25.15,25.15,0,0,1,274,66.15Z"></path><path class="a4c15f9f-06af-4b5e-8566-15f7b33bdee0" d="M302.75,56v8.57a6.64,6.64,0,0,1-1.46,4.68,4.9,4.9,0,0,1-3.73,1.56,4.66,4.66,0,0,1-3.64-1.58,6.68,6.68,0,0,1-1.43-4.66V36c0-4.61,1.66-6.92,5-6.92a4.16,4.16,0,0,1,3.68,1.62,8.87,8.87,0,0,1,1.24,4.77,18,18,0,0,1,3.78-4.77,7.81,7.81,0,0,1,5.17-1.62,13.2,13.2,0,0,1,6.28,1.62q3,1.61,3.05,4.28a4.07,4.07,0,0,1-1.3,3.1,4,4,0,0,1-2.8,1.23,13.22,13.22,0,0,1-2.73-.7,12.74,12.74,0,0,0-3.81-.69,5.58,5.58,0,0,0-3.69,1.18,7.64,7.64,0,0,0-2.22,3.52,24.8,24.8,0,0,0-1.09,5.54C302.85,50.34,302.75,53,302.75,56Z"></path><path class="a4c15f9f-06af-4b5e-8566-15f7b33bdee0" d="M353,52.5H332.94a13.75,13.75,0,0,0,1.41,6.17,9.67,9.67,0,0,0,3.65,4,9.55,9.55,0,0,0,5,1.36,12.55,12.55,0,0,0,3.36-.43,10.75,10.75,0,0,0,2.95-1.36,22.37,22.37,0,0,0,2.64-2c.8-.7,1.84-1.66,3.12-2.86a3.36,3.36,0,0,1,2.25-.68,3.71,3.71,0,0,1,2.56.87,3.1,3.1,0,0,1,1,2.44,6.73,6.73,0,0,1-1.09,3.25,12.94,12.94,0,0,1-3.29,3.58A19,19,0,0,1,351,69.73a23.88,23.88,0,0,1-7.65,1.12q-9.88,0-15.38-5.64t-5.49-15.3a25.32,25.32,0,0,1,1.36-8.44,18.53,18.53,0,0,1,3.94-6.67,17.07,17.07,0,0,1,6.39-4.27A23,23,0,0,1,342.57,29a20,20,0,0,1,10.32,2.54,16.71,16.71,0,0,1,6.45,6.56,17.39,17.39,0,0,1,2.14,8.2q0,3.87-2.22,5A13.9,13.9,0,0,1,353,52.5Zm-20.08-5.82h18.61c-.25-3.51-1.19-6.14-2.84-7.88a8.49,8.49,0,0,0-6.48-2.61,8.2,8.2,0,0,0-6.3,2.65Q333.47,41.5,332.94,46.68Z"></path><path class="a4c15f9f-06af-4b5e-8566-15f7b33bdee0" d="M391.37,66.6l-7.44-10.94L376.29,66.6a19.35,19.35,0,0,1-2.8,3.28,4.32,4.32,0,0,1-2.91,1,4.79,4.79,0,0,1-3.33-1.22,3.68,3.68,0,0,1-1.37-2.8q0-1.62,2.1-4.62l9.29-13.31L369,37.8c-1.43-1.82-2.15-3.42-2.15-4.77a3.6,3.6,0,0,1,1.28-2.74,4.77,4.77,0,0,1,3.35-1.17,4.47,4.47,0,0,1,3,1,19.16,19.16,0,0,1,2.76,3.2l6.66,9.1,6.46-9.1a17.72,17.72,0,0,1,2.8-3.23,4.5,4.5,0,0,1,2.95-1,5,5,0,0,1,3.37,1.15A3.5,3.5,0,0,1,400.84,33a4.93,4.93,0,0,1-.54,2.24,17.45,17.45,0,0,1-1.67,2.53l-8.24,11.1,9.29,13.31c1.45,2.08,2.18,3.64,2.18,4.7a3.57,3.57,0,0,1-1.35,2.78,5,5,0,0,1-3.35,1.16,4.54,4.54,0,0,1-3-1A17.27,17.27,0,0,1,391.37,66.6Z"></path></g></g></svg> 