<!-- Kartenbasis: Natural Earth 110m (public domain), eigene Projektion -->
<svg xmlns="http://www.w3.org/2000/svg" viewBox="0 0 800 730"><style>path{fill:rgba(255,255,255,0.05);stroke:#ffffff;stroke-width:1.2;stroke-opacity:0.6;stroke-linejoin:round}</style><g id="country"><path id="fra" d="M445.0,201.8 457.6,211.7 496.0,218.7 482.5,244.6 479.1,271.6 471.8,278.0 459.6,274.5 460.5,284.1 441.0,305.4 440.6,322.5 453.3,316.6 462.5,333.2 461.4,343.9 469.2,358.1 460.0,369.6 466.9,398.9 481.3,403.7 478.3,420.1 454.1,441.4 401.5,431.2 362.7,443.5 359.6,466.3 328.7,471.2 298.7,454.0 289.0,462.2 239.9,445.0 229.3,430.3 243.1,407.6 248.2,332.3 220.6,292.6 201.0,273.5 160.2,258.9 157.5,231.3 192.1,223.1 236.9,232.8 228.4,190.0 253.6,206.2 315.7,176.7 323.7,145.8 347.0,138.1 350.9,151.4 363.3,152.0 375.7,167.2 394.3,185.1 408.0,182.1 431.3,199.4 437.3,202.6 445.0,201.8ZM513.2,460.4 530.4,445.9 534.9,478.4 526.1,507.6 514.0,499.9 507.8,474.4 513.2,460.4Z"/><path id="pol" d="M906.2,33.6 907.4,50.3 914.8,64.7 914.6,79.8 898.7,87.5 906.9,105.0 907.4,121.9 920.8,154.9 917.9,165.5 904.7,169.9 880.5,201.3 887.4,218.3 881.6,216.1 856.2,201.6 837.0,206.9 824.4,203.1 808.7,211.2 795.2,197.8 784.3,202.9 782.8,200.6 770.5,182.0 750.7,179.7 748.1,167.9 729.8,163.6 725.9,173.4 711.4,165.6 713.0,155.2 693.1,151.9 680.5,139.7 669.5,115.5 671.6,102.5 665.0,82.3 655.3,68.8 662.8,58.7 656.5,39.4 674.7,28.3 716.4,10.8 749.9,-1.9 776.6,4.4 778.6,13.7 804.3,14.1 837.1,18.4 886.2,17.9 899.8,21.9 906.2,33.6Z"/><path id="aut" d="M732.8,252.5 730.8,268.0 715.7,268.1 720.9,276.3 712.1,300.6 707.0,307.0 683.7,307.9 670.2,316.5 648.2,313.6 610.0,303.8 604.1,290.7 577.7,297.2 574.6,304.4 558.5,299.1 544.9,298.0 532.8,291.1 536.9,281.9 535.8,275.2 543.9,273.1 557.4,283.6 561.2,273.6 584.7,275.2 603.8,268.4 616.6,269.6 624.9,277.3 627.4,270.9 623.6,246.3 633.2,241.5 642.6,224.0 662.4,236.2 677.4,220.7 686.8,217.9 707.5,229.4 720.0,227.5 732.3,234.6 730.1,239.4 732.8,252.5Z"/><path id="hun" d="M868.9,241.2 883.8,251.5 885.6,261.7 869.3,269.6 856.7,295.2 840.6,320.9 819.2,328.0 802.6,326.4 782.1,336.3 782.1,336.3 772.2,341.9 750.1,334.7 730.2,318.5 721.7,313.8 716.5,301.0 712.1,300.6 720.9,276.3 715.7,268.1 730.8,268.0 732.8,252.5 746.4,262.2 756.2,266.3 778.6,261.7 780.7,254.1 791.3,253.0 804.3,247.1 807.2,249.5 819.7,244.8 826.0,235.9 834.7,233.6 863.3,245.1 868.9,241.2Z"/><path id="deu" d="M656.5,39.4 662.8,58.7 655.3,68.8 665.0,82.3 671.6,102.5 669.5,115.5 680.5,139.7 668.6,143.6 661.5,139.3 654.8,146.5 635.7,153.8 625.8,163.2 606.4,171.5 611.1,182.7 613.9,198.7 627.5,207.8 642.6,224.0 633.2,241.5 623.6,246.3 627.4,270.9 624.9,277.3 616.6,269.6 603.8,268.4 584.7,275.2 561.2,273.6 557.4,283.6 543.9,273.1 535.8,275.2 507.3,263.6 501.8,271.8 479.1,271.6 482.5,244.6 496.0,218.7 457.6,211.7 445.0,201.8 446.5,185.3 441.1,176.7 444.2,151.2 439.7,111.5 455.7,111.5 462.5,97.3 469.1,62.6 464.1,49.8 469.3,41.8 491.6,39.8 496.6,48.1 514.7,29.5 508.6,15.3 507.4,-6.2 527.5,-1.2 544.6,-6.9 545.1,7.7 572.0,16.5 571.7,29.9 598.8,22.8 613.8,12.5 643.9,27.4 656.5,39.4Z"/><path id="alb" d="M840.5,527.9 840.0,537.9 831.3,543.3 829.7,555.6 817.3,574.0 812.8,571.3 812.3,563.0 797.5,550.3 795.2,532.3 797.4,506.5 801.1,494.7 796.6,488.8 796.6,488.8 794.8,476.7 806.3,458.1 808.0,465.2 815.2,461.9 820.9,472.0 827.3,475.9 829.1,489.6 829.1,489.6 825.7,502.5 829.5,518.7 840.5,527.9Z"/><path id="hrv" d="M721.7,313.8 730.2,318.5 750.1,334.7 772.2,341.9 782.1,336.3 788.6,350.9 797.1,361.7 786.8,376.0 774.8,367.6 756.3,368.1 733.4,361.8 720.9,362.7 715.2,370.5 705.6,361.8 700.0,377.5 713.1,395.2 718.8,406.9 731.1,421.1 741.3,429.4 751.3,445.2 774.9,459.6 772.0,466.0 772.0,466.0 746.9,452.0 731.5,438.4 707.1,427.1 684.7,399.3 690.0,396.5 677.9,380.6 677.4,367.8 660.2,361.8 652.1,378.2 644.2,365.5 644.8,352.4 645.7,351.7 664.3,353.0 669.2,346.7 678.3,352.8 688.7,353.6 688.6,343.0 697.9,339.1 700.5,323.8 721.7,313.8Z"/><path id="che" d="M535.8,275.2 536.9,281.9 532.8,291.1 544.9,298.0 558.5,299.1 556.4,314.6 544.6,320.9 524.9,316.2 519.1,331.5 506.4,332.7 501.8,326.7 486.8,339.5 474.0,341.3 462.5,333.2 453.3,316.6 440.6,322.5 441.0,305.4 460.5,284.1 459.6,274.5 471.8,278.0 479.1,271.6 501.8,271.8 507.3,263.6 535.8,275.2Z"/><path id="lux" d="M441.1,176.7 446.5,185.3 445.0,201.8 437.3,202.6 431.3,199.4 434.2,178.1 441.1,176.7Z"/><path id="bel" d="M444.2,151.2 441.1,176.7 434.2,178.1 431.3,199.4 408.0,182.1 394.3,185.1 375.7,167.2 363.3,152.0 350.9,151.4 347.0,138.1 368.4,130.7 368.4,130.7 368.4,130.7 387.9,133.6 412.6,125.8 429.5,142.3 444.2,151.2Z"/><path id="nld" d="M464.1,49.8 469.1,62.6 462.5,97.3 455.7,111.5 439.7,111.5 444.2,151.2 429.5,142.3 412.6,125.8 387.9,133.6 368.4,130.7 368.4,130.7 382.1,120.3 405.5,64.6 442.0,48.8 464.1,49.8Z"/><path id="prt" d="M39.1,488.7 48.7,479.1 59.6,473.5 66.3,492.1 82.1,492.0 86.6,487.2 102.2,488.6 109.6,507.5 97.3,517.8 97.0,547.3 92.6,552.8 91.6,570.7 80.0,573.8 90.7,596.5 83.4,621.3 92.6,632.6 88.9,642.9 79.0,657.0 81.2,669.6 70.5,679.4 56.5,674.1 42.7,678.2 46.8,648.6 44.3,625.4 32.3,621.9 26.0,607.5 28.1,582.8 38.7,569.1 40.6,553.8 46.2,531.0 45.6,515.0 40.2,501.4 39.1,488.7Z"/><path id="esp" d="M81.2,669.6 79.0,657.0 88.9,642.9 92.6,632.6 83.4,621.3 90.7,596.5 80.0,573.8 91.6,570.7 92.6,552.8 97.0,547.3 97.3,517.8 109.6,507.5 102.2,488.6 86.6,487.2 82.1,492.0 66.3,492.1 59.6,473.5 48.7,479.1 39.1,488.7 40.4,461.7 29.5,445.3 67.2,418.0 99.9,424.8 135.7,424.6 164.1,431.1 186.2,429.1 229.3,430.3 239.9,445.0 289.0,462.2 298.7,454.0 328.7,471.2 359.6,466.3 361.1,488.2 335.8,513.4 301.6,521.4 299.2,534.1 282.8,555.1 272.6,585.9 283.0,607.5 267.5,624.4 261.8,649.0 241.6,656.5 222.8,685.6 188.9,686.2 163.5,685.4 146.8,698.8 136.6,713.1 123.6,710.0 113.7,697.2 106.1,675.4 81.2,669.6Z"/><path id="ita" d="M558.5,299.1 574.6,304.4 577.7,297.2 604.1,290.7 610.0,303.8 648.2,313.6 645.3,332.2 651.7,348.3 630.4,342.8 608.8,356.2 610.2,375.0 607.0,385.8 615.7,405.0 640.7,424.1 654.1,455.4 683.8,485.8 704.7,485.6 711.2,494.0 703.7,501.5 727.6,515.2 747.2,526.6 770.0,546.3 772.8,553.4 767.8,566.9 753.0,549.3 729.9,543.1 718.6,567.5 737.9,581.6 734.7,601.3 723.6,603.5 709.4,636.0 698.2,638.9 698.3,627.3 703.8,607.0 709.6,599.0 699.2,577.0 691.0,558.0 680.0,553.3 672.1,536.9 655.0,530.1 643.4,514.8 623.7,512.4 602.8,495.3 578.5,470.7 560.3,448.9 552.0,411.5 538.7,407.1 517.0,394.6 504.8,399.8 489.4,417.3 478.3,420.1 481.3,403.7 466.9,398.9 460.0,369.6 469.2,358.1 461.4,343.9 462.5,333.2 474.0,341.3 486.8,339.5 501.8,326.7 506.4,332.7 519.1,331.5 524.9,316.2 544.6,320.9 556.4,314.6 558.5,299.1ZM673.6,630.0 693.9,626.7 684.3,656.5 688.3,668.2 682.7,687.6 662.3,673.4 648.7,669.3 611.5,650.1 615.2,630.7 646.4,634.1 673.6,630.0ZM512.3,525.8 525.6,514.0 541.6,540.9 537.9,590.9 525.7,588.5 514.9,601.1 504.8,591.1 503.7,545.5 497.6,523.9 512.3,525.8Z"/><path id="dnk" d="M544.6,-6.9 527.5,-1.2 507.4,-6.2 496.5,-27.1 495.7,-65.8 500.2,-76.0 507.8,-87.4 531.3,-89.7 540.7,-100.2 562.1,-110.8 561.2,-91.4 553.3,-79.1 556.5,-68.5 571.0,-62.7 564.5,-48.5 556.5,-52.6 537.3,-25.3 544.6,-6.9ZM609.9,-49.6 618.4,-30.6 602.4,-0.0 574.5,-21.4 570.8,-37.1 609.9,-49.6Z"/><path id="svn" d="M648.2,313.6 670.2,316.5 683.7,307.9 707.0,307.0 712.1,300.6 716.5,301.0 721.7,313.8 700.5,323.8 697.9,339.1 688.6,343.0 688.7,353.6 678.3,352.8 669.2,346.7 664.3,353.0 645.7,351.7 651.7,348.3 645.3,332.2 648.2,313.6Z"/><path id="svk" d="M881.6,216.1 874.2,226.0 868.9,241.2 863.3,245.1 834.7,233.6 826.0,235.9 819.7,244.8 807.2,249.5 804.3,247.1 791.3,253.0 780.7,254.1 778.6,261.7 756.2,266.3 746.4,262.2 732.8,252.5 730.1,239.4 732.3,234.6 736.1,226.3 747.9,226.9 757.0,223.0 757.7,219.5 762.8,217.7 764.5,209.1 770.7,207.5 774.8,200.7 782.8,200.6 784.3,202.9 795.2,197.8 808.7,211.2 824.4,203.1 837.0,206.9 856.2,201.6 881.6,216.1Z"/><path id="cze" d="M680.5,139.7 693.1,151.9 713.0,155.2 711.4,165.6 725.9,173.4 729.8,163.6 748.1,167.9 750.7,179.7 770.5,182.0 782.8,200.6 774.8,200.7 770.7,207.5 764.5,209.1 762.8,217.7 757.7,219.5 757.0,223.0 747.9,226.9 736.1,226.3 732.3,234.6 720.0,227.5 707.5,229.4 686.8,217.9 677.4,220.7 662.4,236.2 642.6,224.0 627.5,207.8 613.9,198.7 611.1,182.7 606.4,171.5 625.8,163.2 635.7,153.8 654.8,146.5 661.5,139.3 668.6,143.6 680.5,139.7Z"/><path id="bih" d="M774.9,459.6 751.3,445.2 741.3,429.4 731.1,421.1 718.8,406.9 713.1,395.2 700.0,377.5 705.6,361.8 715.2,370.5 720.9,362.7 733.4,361.8 756.3,368.1 774.8,367.6 786.8,376.0 786.8,376.0 796.5,375.9 789.8,392.5 802.7,407.0 798.8,424.8 792.5,426.5 787.5,430.0 778.8,438.8 774.9,459.6Z"/><path id="srb" d="M782.1,336.3 782.1,336.3 802.6,326.4 819.2,328.0 833.7,342.9 836.6,354.9 852.9,363.8 855.0,379.4 870.5,390.4 878.9,381.9 885.5,386.6 879.3,393.0 884.2,399.6 877.6,408.2 880.0,422.0 893.0,438.3 882.8,450.2 878.3,462.2 881.2,466.7 876.8,472.0 864.5,472.7 855.4,474.9 854.5,472.0 857.7,467.5 860.7,458.3 856.9,458.5 851.7,451.5 847.3,449.7 843.8,443.7 838.8,441.4 835.1,436.0 830.3,438.1 826.6,450.7 820.2,453.4 822.4,450.2 812.2,442.3 803.5,438.2 799.6,433.0 792.5,426.5 798.8,424.8 802.7,407.0 789.8,392.5 796.5,375.9 786.8,376.0 786.8,376.0 797.1,361.7 788.6,350.9 782.1,336.3Z"/><path id="mne" d="M815.2,461.9 808.0,465.2 806.3,458.1 794.8,476.7 796.6,488.8 791.0,485.8 783.5,473.5 772.0,466.0 774.9,459.6 778.8,438.8 787.5,430.0 792.5,426.5 799.6,433.0 803.5,438.2 812.2,442.3 822.4,450.2 820.2,453.4 815.2,461.9Z"/></g></svg>