<?xml version="1.0" encoding="UTF-8"?> <svg xmlns="http://www.w3.org/2000/svg" xmlns:xlink="http://www.w3.org/1999/xlink" viewBox="0 0 975.19 179.15"><defs><style>.cls-1{fill:#fff;}.cls-2{fill:url(#Unbenannter_Verlauf_2);}.cls-3{fill:#fff;}.cls-4{fill:url(#Unbenannter_Verlauf_4);}.cls-5{fill:url(#Unbenannter_Verlauf_7);}</style><linearGradient id="Unbenannter_Verlauf_2" y1="68.33" x2="250.54" y2="68.33" gradientUnits="userSpaceOnUse"><stop offset="0" stop-color="#fff"></stop><stop offset="1" stop-color="#fff"></stop></linearGradient><linearGradient id="Unbenannter_Verlauf_4" x1="121.12" y1="176.5" x2="55.06" y2="121.07" gradientUnits="userSpaceOnUse"><stop offset="0" stop-color="#fff"></stop><stop offset="1" stop-color="#fff"></stop></linearGradient><linearGradient id="Unbenannter_Verlauf_7" x1="125.19" y1="163.02" x2="198.36" y2="133.46" gradientUnits="userSpaceOnUse"><stop offset="0" stop-color="#fff"></stop><stop offset="0.6" stop-color="#fff"></stop><stop offset="1" stop-color="#fff"></stop></linearGradient></defs><g id="Ebene_2" data-name="Ebene 2"><g id="Ebene_2-2" data-name="Ebene 2"><path class="cls-1" d="M430.05,34.06v76.6a11.44,11.44,0,0,1-11.6,11.4c-6.6,0-10.6-5.2-10.6-11.4v-2.4c-8.6,7.4-18.6,11.8-30.6,11.8a48.3,48.3,0,1,1,0-96.6c12,0,22,4.6,30.6,11.6v-1c0-6.2,4-11.4,10.6-11.4A11.44,11.44,0,0,1,430.05,34.06Zm-27.8,37.8a25.1,25.1,0,1,0-25,24.8A25.14,25.14,0,0,0,402.25,71.86Z"></path><path class="cls-1" d="M552.85,72.86a50.66,50.66,0,0,1-50.6,50.6,52.47,52.47,0,0,1-28.2-8.4v46.8a12.1,12.1,0,1,1-24.2,0V34.66a12.08,12.08,0,0,1,12.2-12,12.32,12.32,0,0,1,11.6,8.4,49.92,49.92,0,0,1,28.6-8.8A50.66,50.66,0,0,1,552.85,72.86Zm-24.2,0a26.4,26.4,0,1,0-26.4,26.4A26.5,26.5,0,0,0,528.65,72.86Z"></path><path class="cls-1" d="M669.85,72.86a50.66,50.66,0,0,1-50.6,50.6,52.47,52.47,0,0,1-28.2-8.4v46.8a12.1,12.1,0,1,1-24.2,0V34.66a12.08,12.08,0,0,1,12.2-12,12.32,12.32,0,0,1,11.6,8.4,49.92,49.92,0,0,1,28.6-8.8A50.66,50.66,0,0,1,669.85,72.86Zm-24.2,0a26.4,26.4,0,1,0-26.4,26.4A26.5,26.5,0,0,0,645.65,72.86Z"></path><path class="cls-1" d="M765.25,53.06a12,12,0,0,1-17,.6,24.14,24.14,0,0,0-16.6-6.6c-13.6,0-24.8,11.6-24.8,25.8v37.8a12,12,0,0,1-24,0V34.06a12,12,0,0,1,23.4-3.6,47.61,47.61,0,0,1,58.4,5.8A11.78,11.78,0,0,1,765.25,53.06Z"></path><path class="cls-1" d="M857.64,79.26H796.05a26.36,26.36,0,0,0,25.4,20.2c6.39,0,15.79-2.6,21-7.6a12,12,0,0,1,17,.2,11.83,11.83,0,0,1-.2,17c-11,10.6-26.4,14.2-37.79,14.2a50.2,50.2,0,0,1,0-100.4,43.5,43.5,0,0,1,8.79.8,48.42,48.42,0,0,1,32.4,23c3.2,5.6,6.8,13,6.41,19.6a16.93,16.93,0,0,1-1.61,5.8C865.84,75.86,862.44,79.26,857.64,79.26Zm-58.19-20.2h42.39c-4-7.6-11.39-12-20.39-12A25.94,25.94,0,0,0,799.45,59.06Z"></path><path class="cls-1" d="M971.84,102.26a11.9,11.9,0,0,1-.4,16.6,11.47,11.47,0,0,1-8.2,3.2,11.85,11.85,0,0,1-8.4-3.6l-28-29-27.6,28.6a11.2,11.2,0,0,1-8.4,3.6,12.16,12.16,0,0,1-8.2-3.2,11.71,11.71,0,0,1-.2-16.6l28.2-29.2-28.4-29.4a11.81,11.81,0,0,1,17-16.4l27.6,28.8L955,26.46a11.74,11.74,0,1,1,16.8,16.4l-28.6,29.8Z"></path><path class="cls-2" d="M133.17,1.78c-4.35-2.37-11.46-2.37-15.8,0L3.26,64c-4.35,2.37-4.35,6.25,0,8.62l114.11,62.24c4.34,2.37,11.45,2.37,15.8,0L247.28,72.64c4.34-2.37,4.34-6.25,0-8.62Z"></path><path class="cls-3" d="M230.16,159.64c0,7,0,7-3,9l-16.77,8.67-3.56,1.84s0-1.8,0-4l.08-47.84V114.64c0-2.69.83-4.79,3.24-6l20.08-11"></path><path class="cls-4" d="M56.25,143.1V125a4.77,4.77,0,0,1,7-4.22C75,127,98.2,139.45,108.39,145.37c13.9,8.08,11.72,20.2,11.72,32.32"></path><path class="cls-5" d="M194.56,144.67V125a4.76,4.76,0,0,0-7-4.21c-11.7,6.22-34.95,18.65-45.13,24.58-13.9,8.08-11.31,20.2-11.31,32.32"></path></g></g></svg> 