<?xml version="1.0" encoding="UTF-8"?> <svg xmlns="http://www.w3.org/2000/svg" xmlns:xlink="http://www.w3.org/1999/xlink" id="Ebene_2" data-name="Ebene 2" viewBox="0 0 448.13 108.12"><defs><style> .cls-1 { fill: #fff; } .cls-2 { fill: url(#Gradient); } </style><linearGradient id="Gradient" x1="11.3" y1="98.7" x2="112.7" y2="-2.7" gradientUnits="userSpaceOnUse"><stop offset="0" stop-color="#662d91"></stop><stop offset="1" stop-color="#d4145a"></stop></linearGradient></defs><g id="Ebene_1-2" data-name="Ebene 1"><rect class="cls-2" width="124" height="96" rx="14.67" ry="14.67"></rect><g><path class="cls-1" d="M188.72,84.37l-2.27-14.8h-15.01l-2.16,14.8c-.22,1.4-1.08,2.16-2.38,2.16h-4.54c-1.51,0-2.27-1.19-2.05-2.7l11.23-73.12c.22-1.62,1.08-2.38,2.59-2.38h9.72c1.51,0,2.27.76,2.48,2.38l11.23,73.12c.22,1.62-.54,2.7-2.05,2.7h-4.54c-1.19,0-2.16-.76-2.27-2.16ZM172.41,62.01h12.96l-3.67-25.16-2.48-20.95h-.54l-2.48,20.95-3.78,25.16Z"></path><path class="cls-1" d="M212.16,84.15c0,1.51-.86,2.38-2.38,2.38h-4.32c-1.51,0-2.38-.87-2.38-2.38V10.6c0-1.51.86-2.27,2.38-2.27h4.32c1.51,0,2.38.76,2.38,2.27v73.55Z"></path><path class="cls-1" d="M263.13,89.22c1.51,0,2.27.87,2.27,2.38v2.59c0,1.51-.76,2.38-2.27,2.38h-44.28c-1.51,0-2.38-.86-2.38-2.38v-2.59c0-1.51.86-2.38,2.38-2.38h44.28Z"></path><path class="cls-1" d="M296.72,84.26c0,1.4-.76,2.27-2.27,2.27h-3.67c-1.51,0-2.27-.87-2.27-2.27v-45.15c0-4.54-1.3-6.05-4.86-6.05s-5.62,1.94-5.62,6.48v44.71c0,1.4-.86,2.27-2.38,2.27h-3.56c-1.51,0-2.38-.87-2.38-2.27V28.74c0-1.51.86-2.27,2.38-2.27h3.56c1.51,0,2.38.76,2.38,2.27v1.4c2.7-2.7,6.48-4.21,9.83-4.21,4.75,0,8.86,3.02,8.86,9.94v48.39Z"></path><path class="cls-1" d="M309.46,7.9c3.13,0,5.29,2.16,5.29,5.29s-2.16,5.18-5.29,5.18-5.18-2.16-5.18-5.18,2.16-5.29,5.18-5.29ZM313.67,84.15c0,1.51-.86,2.38-2.38,2.38h-3.56c-1.51,0-2.38-.87-2.38-2.38V28.74c0-1.51.86-2.27,2.38-2.27h3.56c1.51,0,2.38.76,2.38,2.27v55.4Z"></path><path class="cls-1" d="M349.31,94.19c0,8.96-3.24,13.93-14.58,13.93h-5.29c-1.51,0-2.38-.76-2.38-2.27v-2.27c0-1.51.86-2.38,2.38-2.38h5.29c5.08,0,6.37-2.59,6.37-7.13v-11.23c-2.81,2.7-6.59,4.21-9.94,4.21-4.75,0-8.86-3.02-8.86-9.94v-41.26c0-6.91,4.1-9.94,8.86-9.94,3.35,0,7.13,1.51,9.94,4.21v-1.4c0-1.51.76-2.27,2.27-2.27h3.67c1.51,0,2.27.76,2.27,2.27v65.45ZM330.63,73.78c0,4.64,1.19,6.05,4.75,6.05s5.72-1.84,5.72-6.37v-33.91c0-4.54-2.05-6.48-5.72-6.48s-4.75,1.51-4.75,6.05v34.67Z"></path><path class="cls-1" d="M384.95,84.26c0,1.4-.76,2.27-2.27,2.27h-3.67c-1.51,0-2.27-.87-2.27-2.27v-45.15c0-4.54-1.3-6.05-4.86-6.05s-5.62,1.94-5.62,6.48v44.71c0,1.4-.86,2.27-2.38,2.27h-3.56c-1.51,0-2.38-.87-2.38-2.27V2.39c0-1.51.86-2.27,2.38-2.27h3.56c1.51,0,2.38.76,2.38,2.27v27.76c2.7-2.7,6.48-4.21,9.83-4.21,4.75,0,8.86,3.02,8.86,9.94v48.39Z"></path><path class="cls-1" d="M396.83,26.48v-15.88c0-1.51.86-2.27,2.38-2.27h3.56c1.51,0,2.38.76,2.38,2.27v15.88h6.8c1.51,0,2.38.76,2.38,2.27v2.27c0,1.51-.86,2.38-2.38,2.38h-6.8v38.99c0,4.64,1.19,7.24,6.37,7.24h2.59c1.51,0,2.38.76,2.38,2.27v2.27c0,1.51-.86,2.38-2.38,2.38h-2.59c-11.45,0-14.69-4.97-14.69-14.04v-39.1h-4.64c-1.51,0-2.38-.87-2.38-2.38v-2.27c0-1.51.86-2.27,2.38-2.27h4.64Z"></path><path class="cls-1" d="M434.63,87.06c-10.48,0-13.5-4.54-13.5-12.85v-6.91c0-1.51.76-2.38,2.27-2.38h3.67c1.51,0,2.27.87,2.27,2.38v6.8c0,4.54,1.62,6.05,5.29,6.05s5.18-1.51,5.18-6.05c0-6.7-.86-7.24-4.75-11.12l-8.21-7.99c-3.89-3.78-5.72-7.02-5.72-16.2,0-8.32,3.02-12.85,13.5-12.85s13.5,4.54,13.5,12.85v6.91c0,1.51-.86,2.27-2.38,2.27h-3.56c-1.51,0-2.38-.76-2.38-2.27v-6.8c0-4.64-1.62-6.05-5.18-6.05s-5.29,1.4-5.29,6.05c0,6.7.86,7.13,4.75,11.12l8.21,7.99c3.89,3.78,5.83,7.02,5.83,16.2,0,8.32-3.13,12.85-13.5,12.85Z"></path></g><path class="cls-1" d="M28.69,50.96c-.19,1.25-.7,2.64-1.32,3.56-.39.59-1.21,1.38-1.8,1.74-.58.35-1.43.65-2.2.79-.34.06-.63.12-.64.14s.18.04.42.07c.65.06,1.36.28,2.1.65,1.17.58,2.18,1.71,2.78,3.13.26.63.63,1.96.7,2.57.03.21.06.38.07.37,0-.01.09-.36.17-.77.68-3.39,2.33-5.29,5.07-5.87.27-.06.6-.11.74-.11.39,0,.26-.05-.47-.17-2.28-.4-3.86-1.68-4.75-3.86-.21-.53-.35-1.01-.73-2.63-.04-.18-.06-.11-.14.38Z"></path><path class="cls-1" d="M42.6,56.04c-.07.14-.21.74-.3,1.39-.25,1.74-1.23,4.68-2.11,6.37-2.09,4.01-5.38,6.46-9.87,7.37l-1.95.39,1.97.39c5.98,1.18,9.99,5.47,11.61,12.49.28,1.2.56,2.34.63,2.53s.32-.63.56-1.81c1.18-5.7,3.96-9.89,7.9-11.89,1.46-.74,4.38-1.58,5.61-1.62.42-.02.05-.14-.9-.32-2.13-.39-4.08-1.09-5.63-2.02-3.36-2.04-6.09-6.63-7.07-11.91-.16-.88-.37-1.48-.44-1.37Z"></path><path class="cls-1" d="M72.73,12.43c-1.14,6.56-4.35,13.9-8.17,18.77-2.42,3.11-7.47,7.27-11.11,9.18-3.56,1.84-8.83,3.45-13.57,4.16-2.11.3-3.87.64-3.95.71s1.1.22,2.59.37c4.04.34,8.39,1.5,12.96,3.41,7.25,3.04,13.49,9.03,17.17,16.49,1.63,3.33,3.87,10.34,4.3,13.53.18,1.12.35,1.99.44,1.95.04-.07.53-1.91,1.05-4.05,4.22-17.87,14.36-27.84,31.32-30.91,1.67-.3,3.73-.56,4.57-.56,2.42,0,1.63-.26-2.9-.9-14.1-2.1-23.85-8.84-29.34-20.31-1.32-2.81-2.15-5.32-4.48-13.83-.26-.94-.4-.6-.88,1.99Z"></path></g></svg> 