<?xml version="1.0" encoding="UTF-8"?> <svg xmlns="http://www.w3.org/2000/svg" xmlns:xlink="http://www.w3.org/1999/xlink" version="1.1" id="Ebene_1" x="0px" y="0px" viewBox="0 0 1420 330" style="enable-background:new 0 0 1420 330;" xml:space="preserve"> <g> <g> <path fill="white" d="M206.6,165c0,31-22.6,55-53,55H110V110h43.7C184,110,206.6,134.1,206.6,165z M185.9,165c0-20.3-13.2-34.3-32.2-34.3h-22 v68.5h22C172.7,199.3,185.9,185.3,185.9,165z"></path> </g> <g> <path fill="white" d="M290.1,199.3V220h-68V110h67.3v20.7h-45.6v23.4h41.6v20.4h-41.6v24.7H290.1z"></path> </g> <g> <path fill="white" d="M299.7,195l18.5-10.8c3.9,10.2,11.6,16.8,25.3,16.8c13,0,17.6-5.5,17.6-11.6c0-8.2-7.4-11.3-23.7-16 c-16.8-4.9-33.2-11.9-33.2-32.8c0-20.7,17.3-32.7,36.1-32.7c18.1,0,31.9,9.3,39.3,24.7L361.4,143c-3.9-8.3-9.9-14.1-21.1-14.1 c-9.1,0-14.5,4.7-14.5,11c0,6.8,4.2,10.4,20.9,15.4c17.4,5.5,36,11.3,36,33.8c0,20.6-16.5,33.2-39.9,33.2 C320.4,222.2,305.6,211.4,299.7,195z"></path> </g> <g> <path fill="white" d="M417.9,110v110h-21.7V110H417.9z"></path> </g> <g> <path fill="white" d="M546.2,169.4c0,31.7-22.5,52.8-54.1,52.8c-34.4,0-58.9-25.6-58.9-57c0-31.9,24.8-57.4,57.7-57.4 c20.9,0,38.7,10.5,47.9,25.6l-18.5,10.7c-5-8.8-16.2-15.2-29.5-15.2c-20.9,0-36,15.4-36,36.3c0,20.4,14.6,35.8,37.6,35.8 c17.3,0,28.3-8.3,32.1-20.9h-33.3v-19.2h55.2V169.4z"></path> </g> <g> <path fill="white" d="M647,110v110h-16.5l-47.1-67.3V220h-21.7V110h16.5l47.1,67.1V110H647z"></path> </g> <g> <path fill="white" d="M701.7,165c0-32.2,25.3-57.2,57-57.2c31.7,0,57.2,25,57.2,57.2c0,32.1-25.5,57.2-57.2,57.2 C727,222.2,701.7,197.1,701.7,165z M794.2,165c0-21.2-15.6-36.1-35.5-36.1c-20,0-35.5,14.9-35.5,36.1c0,21.1,15.6,36,35.5,36 C778.7,201,794.2,186.1,794.2,165z"></path> </g> <g> <path fill="white" d="M852.8,130.8v26.1h42.7v20.7h-42.7V220h-21.7V110h65.7v20.7H852.8z"></path> </g> <g> <path fill="white" d="M934.4,130.8v26.1h42.7v20.7h-42.7V220h-21.7V110h65.7v20.7H934.4z"></path> </g> <g> <path fill="white" d="M1016,110v110h-21.7V110H1016z"></path> </g> <g> <path fill="white" d="M1031.4,165c0-32.2,23.9-57.2,57.2-57.2c20.1,0,37.9,10.2,47.3,25.9l-18.7,10.8c-5.3-9.7-16-15.7-28.6-15.7 c-21.5,0-35.7,14.9-35.7,36.1c0,21.1,14.1,36,35.7,36c12.6,0,23.4-6,28.6-15.6l18.7,10.8c-9.3,15.7-27,25.9-47.3,25.9 C1055.3,222.2,1031.4,197.1,1031.4,165z"></path> </g> <g> <path fill="white" d="M1217.3,199.3V220h-68V110h67.3v20.7h-45.6v23.4h41.6v20.4h-41.6v24.7H1217.3z"></path> </g> <g> <path fill="white" d="M1226.9,195l18.5-10.8c3.9,10.2,11.6,16.8,25.3,16.8c13,0,17.6-5.5,17.6-11.6c0-8.2-7.4-11.3-23.7-16 c-16.8-4.9-33.2-11.9-33.2-32.8c0-20.7,17.3-32.7,36.1-32.7c18.1,0,31.9,9.3,39.3,24.7l-18.2,10.5c-3.9-8.3-9.9-14.1-21.1-14.1 c-9.1,0-14.5,4.7-14.5,11c0,6.8,4.2,10.4,20.9,15.4c17.4,5.5,36,11.3,36,33.8c0,20.6-16.5,33.2-39.9,33.2 C1247.6,222.2,1232.8,211.4,1226.9,195z"></path> </g> </g> </svg> 