<?xml version="1.0" encoding="UTF-8"?> <svg xmlns="http://www.w3.org/2000/svg" id="Ebene_2" data-name="Ebene 2" viewBox="0 0 448.31 108.44"><defs><style> .cls-1 { fill: #fff; } </style></defs><g id="Ebene_1-2" data-name="Ebene 1"><path class="cls-1" d="M109.33,0H14.67C6.57,0,0,6.57,0,14.67v66.67c0,8.1,6.57,14.67,14.67,14.67h94.67c8.1,0,14.67-6.57,14.67-14.67V14.67c0-8.1-6.57-14.67-14.67-14.67ZM25.25,57.91c-.74-.36-1.44-.58-2.1-.65-.24-.03-.43-.06-.42-.07s.3-.08.64-.14c.77-.14,1.62-.44,2.2-.79.59-.36,1.41-1.15,1.8-1.74.62-.93,1.14-2.32,1.32-3.56.08-.49.1-.55.14-.38.38,1.62.51,2.09.73,2.63.89,2.18,2.47,3.46,4.75,3.86.73.12.86.17.47.17-.14,0-.47.05-.74.11-2.75.58-4.39,2.48-5.07,5.87-.09.41-.16.75-.17.77-.01,0-.04-.16-.07-.37-.07-.6-.43-1.94-.7-2.57-.6-1.42-1.61-2.55-2.78-3.13ZM56.64,71.66c-1.23.05-4.15.88-5.61,1.62-3.94,1.99-6.72,6.19-7.9,11.89-.23,1.18-.49,1.99-.56,1.81s-.35-1.32-.63-2.53c-1.62-7.02-5.63-11.31-11.61-12.49l-1.97-.39,1.95-.39c4.5-.9,7.79-3.36,9.87-7.37.88-1.69,1.85-4.63,2.11-6.37.09-.65.23-1.25.3-1.39.07-.12.28.49.44,1.37.97,5.28,3.71,9.87,7.07,11.91,1.55.93,3.5,1.62,5.63,2.02.95.19,1.32.3.9.32ZM110.33,45.48c-.83,0-2.9.26-4.57.56-16.96,3.07-27.1,13.04-31.32,30.91-.53,2.14-1.01,3.97-1.05,4.05-.09.04-.26-.82-.44-1.95-.44-3.19-2.68-10.19-4.3-13.53-3.69-7.46-9.93-13.45-17.17-16.49-4.57-1.91-8.92-3.07-12.96-3.41-1.49-.15-2.68-.3-2.59-.37.09-.07,1.84-.41,3.95-.71,4.74-.71,10.02-2.32,13.57-4.16,3.65-1.91,8.7-6.07,11.11-9.18,3.82-4.87,7.03-12.22,8.17-18.77.48-2.59.61-2.92.88-1.99,2.33,8.51,3.16,11.02,4.48,13.83,5.49,11.47,15.24,18.21,29.34,20.31,4.52.64,5.32.9,2.9.9Z"></path><g><path class="cls-1" d="M188.9,84.68l-2.27-14.8h-15.01l-2.16,14.8c-.22,1.4-1.08,2.16-2.38,2.16h-4.54c-1.51,0-2.27-1.19-2.05-2.7l11.23-73.12c.22-1.62,1.08-2.38,2.59-2.38h9.72c1.51,0,2.27.76,2.48,2.38l11.23,73.12c.22,1.62-.54,2.7-2.05,2.7h-4.54c-1.19,0-2.16-.76-2.27-2.16ZM172.59,62.33h12.96l-3.67-25.16-2.48-20.95h-.54l-2.48,20.95-3.78,25.16Z"></path><path class="cls-1" d="M212.34,84.47c0,1.51-.86,2.38-2.38,2.38h-4.32c-1.51,0-2.38-.86-2.38-2.38V10.92c0-1.51.86-2.27,2.38-2.27h4.32c1.51,0,2.38.76,2.38,2.27v73.55Z"></path><path class="cls-1" d="M263.31,89.54c1.51,0,2.27.86,2.27,2.38v2.59c0,1.51-.76,2.38-2.27,2.38h-44.28c-1.51,0-2.38-.86-2.38-2.38v-2.59c0-1.51.86-2.38,2.38-2.38h44.28Z"></path><path class="cls-1" d="M296.9,84.58c0,1.4-.76,2.27-2.27,2.27h-3.67c-1.51,0-2.27-.86-2.27-2.27v-45.14c0-4.54-1.3-6.05-4.86-6.05s-5.62,1.94-5.62,6.48v44.71c0,1.4-.86,2.27-2.38,2.27h-3.56c-1.51,0-2.38-.86-2.38-2.27V29.06c0-1.51.86-2.27,2.38-2.27h3.56c1.51,0,2.38.76,2.38,2.27v1.4c2.7-2.7,6.48-4.21,9.83-4.21,4.75,0,8.86,3.02,8.86,9.94v48.38Z"></path><path class="cls-1" d="M309.64,8.22c3.13,0,5.29,2.16,5.29,5.29s-2.16,5.18-5.29,5.18-5.18-2.16-5.18-5.18,2.16-5.29,5.18-5.29ZM313.85,84.47c0,1.51-.86,2.38-2.38,2.38h-3.56c-1.51,0-2.38-.86-2.38-2.38V29.06c0-1.51.86-2.27,2.38-2.27h3.56c1.51,0,2.38.76,2.38,2.27v55.4Z"></path><path class="cls-1" d="M349.49,94.51c0,8.96-3.24,13.93-14.58,13.93h-5.29c-1.51,0-2.38-.76-2.38-2.27v-2.27c0-1.51.86-2.38,2.38-2.38h5.29c5.08,0,6.37-2.59,6.37-7.13v-11.23c-2.81,2.7-6.59,4.21-9.94,4.21-4.75,0-8.86-3.02-8.86-9.94v-41.26c0-6.91,4.1-9.94,8.86-9.94,3.35,0,7.13,1.51,9.94,4.21v-1.4c0-1.51.76-2.27,2.27-2.27h3.67c1.51,0,2.27.76,2.27,2.27v65.45ZM330.81,74.1c0,4.64,1.19,6.05,4.75,6.05s5.72-1.84,5.72-6.37v-33.91c0-4.54-2.05-6.48-5.72-6.48s-4.75,1.51-4.75,6.05v34.67Z"></path><path class="cls-1" d="M385.13,84.58c0,1.4-.76,2.27-2.27,2.27h-3.67c-1.51,0-2.27-.86-2.27-2.27v-45.14c0-4.54-1.3-6.05-4.86-6.05s-5.62,1.94-5.62,6.48v44.71c0,1.4-.86,2.27-2.38,2.27h-3.56c-1.51,0-2.38-.86-2.38-2.27V2.71c0-1.51.86-2.27,2.38-2.27h3.56c1.51,0,2.38.76,2.38,2.27v27.76c2.7-2.7,6.48-4.21,9.83-4.21,4.75,0,8.86,3.02,8.86,9.94v48.38Z"></path><path class="cls-1" d="M397.01,26.79v-15.88c0-1.51.86-2.27,2.38-2.27h3.56c1.51,0,2.38.76,2.38,2.27v15.88h6.8c1.51,0,2.38.76,2.38,2.27v2.27c0,1.51-.86,2.38-2.38,2.38h-6.8v38.99c0,4.64,1.19,7.24,6.37,7.24h2.59c1.51,0,2.38.76,2.38,2.27v2.27c0,1.51-.86,2.38-2.38,2.38h-2.59c-11.45,0-14.69-4.97-14.69-14.04v-39.1h-4.64c-1.51,0-2.38-.86-2.38-2.38v-2.27c0-1.51.86-2.27,2.38-2.27h4.64Z"></path><path class="cls-1" d="M434.81,87.38c-10.48,0-13.5-4.54-13.5-12.85v-6.91c0-1.51.76-2.38,2.27-2.38h3.67c1.51,0,2.27.86,2.27,2.38v6.8c0,4.54,1.62,6.05,5.29,6.05s5.18-1.51,5.18-6.05c0-6.7-.86-7.24-4.75-11.12l-8.21-7.99c-3.89-3.78-5.72-7.02-5.72-16.2,0-8.32,3.02-12.85,13.5-12.85s13.5,4.54,13.5,12.85v6.91c0,1.51-.86,2.27-2.38,2.27h-3.56c-1.51,0-2.38-.76-2.38-2.27v-6.8c0-4.64-1.62-6.05-5.18-6.05s-5.29,1.4-5.29,6.05c0,6.7.86,7.13,4.75,11.12l8.21,7.99c3.89,3.78,5.83,7.02,5.83,16.2,0,8.32-3.13,12.85-13.5,12.85Z"></path></g></g></svg> 