<?xml version="1.0" encoding="UTF-8"?> <svg xmlns="http://www.w3.org/2000/svg" id="Ebene_2" data-name="Ebene 2" viewBox="0 0 124 96"><defs><style> .cls-1 { fill: #fff; } </style></defs><g id="Ebene_1-2" data-name="Ebene 1"><path class="cls-1" d="M109.33,0H14.67C6.57,0,0,6.57,0,14.67v66.67c0,8.1,6.57,14.67,14.67,14.67h94.67c8.1,0,14.67-6.57,14.67-14.67V14.67c0-8.1-6.57-14.67-14.67-14.67ZM25.25,57.91c-.74-.36-1.44-.58-2.1-.65-.24-.03-.43-.06-.42-.07s.3-.08.64-.14c.77-.14,1.62-.44,2.2-.79.59-.36,1.41-1.15,1.8-1.74.62-.93,1.14-2.32,1.32-3.56.08-.49.1-.55.14-.38.38,1.62.51,2.09.73,2.63.89,2.18,2.47,3.46,4.75,3.86.73.12.86.17.47.17-.14,0-.47.05-.74.11-2.75.58-4.39,2.48-5.07,5.87-.09.41-.16.75-.17.77-.01,0-.04-.16-.07-.37-.07-.6-.43-1.94-.7-2.57-.6-1.42-1.61-2.55-2.78-3.13ZM56.64,71.66c-1.23.05-4.15.88-5.61,1.62-3.94,1.99-6.72,6.19-7.9,11.89-.23,1.18-.49,1.99-.56,1.81s-.35-1.32-.63-2.53c-1.62-7.02-5.63-11.31-11.61-12.49l-1.97-.39,1.95-.39c4.5-.9,7.79-3.36,9.87-7.37.88-1.69,1.85-4.63,2.11-6.37.09-.65.23-1.25.3-1.39.07-.12.28.49.44,1.37.97,5.28,3.71,9.87,7.07,11.91,1.55.93,3.5,1.62,5.63,2.02.95.19,1.32.3.9.32ZM110.33,45.48c-.83,0-2.9.26-4.57.56-16.96,3.07-27.1,13.04-31.32,30.91-.53,2.14-1.01,3.97-1.05,4.05-.09.04-.26-.82-.44-1.95-.44-3.19-2.68-10.19-4.3-13.53-3.69-7.46-9.93-13.45-17.17-16.49-4.57-1.91-8.92-3.07-12.96-3.41-1.49-.15-2.68-.3-2.59-.37.09-.07,1.84-.41,3.95-.71,4.74-.71,10.02-2.32,13.57-4.16,3.65-1.91,8.7-6.07,11.11-9.18,3.82-4.87,7.03-12.22,8.17-18.77.48-2.59.61-2.92.88-1.99,2.33,8.51,3.16,11.02,4.48,13.83,5.49,11.47,15.24,18.21,29.34,20.31,4.52.64,5.32.9,2.9.9Z"></path></g></svg> 