<?xml version="1.0" encoding="UTF-8"?> <svg xmlns="http://www.w3.org/2000/svg" width="160" height="32" viewBox="0 0 160 32" fill="none"><path d="M10.8554 16.2167L8.4393 16.6275C8.33721 16.3194 8.16706 16.0113 7.96289 15.7375C7.72468 15.4294 7.41842 15.2241 7.07812 15.0529C6.63574 14.8475 6.15933 14.7791 5.68292 14.7791C5.00233 14.7448 4.35577 14.916 3.8113 15.2925C3.33488 15.5663 3.06265 16.0456 3.06265 16.5932C3.06265 17.0382 3.2328 17.449 3.57309 17.6886C4.0495 18.0309 4.628 18.2705 5.2065 18.3732L7.38439 18.8866C8.64348 19.1947 9.56227 19.6396 10.1748 20.2215C10.7873 20.8377 11.1276 21.6934 11.0936 22.5834C11.0936 23.3706 10.8554 24.1579 10.379 24.8083C9.86854 25.4928 9.18795 26.0063 8.40527 26.3143C7.48648 26.6909 6.49962 26.862 5.51277 26.862C3.98144 26.862 2.72235 26.5197 1.76953 25.8694C0.816707 25.219 0.170147 24.1921 0 23.0626L2.55221 22.686C2.68833 23.3022 3.02862 23.8498 3.53906 24.1921C4.11756 24.5687 4.79815 24.7398 5.47874 24.7056C6.22739 24.7398 6.942 24.5344 7.55453 24.1579C8.03095 23.8841 8.33721 23.3706 8.33721 22.823C8.33721 22.4122 8.16706 22.0015 7.8608 21.7276C7.45245 21.3853 6.942 21.1457 6.39753 21.0773L4.08353 20.5638C2.82444 20.2558 1.87162 19.8108 1.25909 19.1604C0.646559 18.5101 0.306265 17.6201 0.340294 16.7301C0.340294 15.9771 0.5785 15.2241 1.02088 14.6079C1.4973 13.9576 2.14385 13.4784 2.8925 13.1703C3.74324 12.828 4.69606 12.6569 5.61486 12.6569C7.07812 12.6569 8.26915 12.9649 9.08586 13.6153C10.0047 14.2999 10.6172 15.1898 10.8554 16.2167Z" fill="white"></path><path d="M17.3882 26.8959C16.5714 26.8959 15.7888 26.7248 15.0401 26.4167C14.3595 26.1087 13.781 25.6295 13.3727 25.0133C12.9643 24.3288 12.7261 23.5415 12.7602 22.72C12.7261 22.0696 12.8963 21.385 13.2025 20.8031C13.5088 20.3239 13.9172 19.9132 14.3936 19.6393C14.938 19.3313 15.4825 19.1259 16.095 18.989C16.7076 18.8521 17.3541 18.7151 18.0007 18.6467L19.9744 18.4071C20.3487 18.3729 20.723 18.2702 21.0974 18.099C21.3356 17.9621 21.4717 17.6883 21.4377 17.4144V17.346C21.4717 16.6614 21.2335 16.011 20.7911 15.5318C20.2466 15.0526 19.566 14.813 18.8514 14.8472C18.1028 14.813 17.3541 15.0184 16.7416 15.4291C16.2652 15.7714 15.9249 16.2164 15.6867 16.7299L13.1685 16.2164C13.4407 15.4291 13.8831 14.7103 14.4957 14.1627C15.0742 13.6492 15.7547 13.2727 16.4694 13.0331C17.218 12.7935 18.0347 12.6908 18.8174 12.6908C19.3959 12.6908 19.9744 12.7593 20.5529 12.8962C21.1654 13.0331 21.7439 13.2727 22.2884 13.5808C22.8329 13.9573 23.3093 14.4365 23.6155 15.0184C23.9899 15.7714 24.16 16.6272 24.126 17.4487V26.5537H21.5057V24.671H21.4036C21.1995 25.116 20.9612 25.4583 20.621 25.7664C20.2466 26.1429 19.8042 26.4167 19.2938 26.5879C18.6813 26.8275 18.0347 26.9302 17.3882 26.8959ZM17.9667 24.7737C18.6132 24.808 19.2598 24.6368 19.8383 24.3288C20.3487 24.0549 20.7571 23.6784 21.0293 23.1992C21.3015 22.7542 21.4377 22.2065 21.4377 21.6931V19.9132C21.2675 20.0501 21.0974 20.1185 20.8932 20.187C20.5869 20.2897 20.2807 20.3582 19.9744 20.3924C19.6341 20.4608 19.2938 20.4951 18.9535 20.5293L18.1368 20.632C17.6604 20.7004 17.184 20.8031 16.7416 20.9743C16.3673 21.1112 15.9929 21.3166 15.7207 21.6246C15.4485 21.9327 15.3124 22.3435 15.3464 22.7542C15.3124 23.3361 15.5846 23.918 16.061 24.2603C16.6395 24.6368 17.2861 24.808 17.9667 24.7737Z" fill="white"></path><path d="M31.0014 26.8959C30.1847 26.8959 29.4021 26.7248 28.6534 26.4167C27.9728 26.1087 27.3943 25.6295 26.986 25.0133C26.5776 24.3288 26.3394 23.5415 26.3734 22.72C26.3394 22.0696 26.5096 21.385 26.8158 20.8031C27.1221 20.3239 27.5304 19.9132 28.0068 19.6393C28.5513 19.3313 29.0958 19.1259 29.7083 18.989C30.3208 18.8521 30.9674 18.7151 31.614 18.6467L33.5877 18.4071C33.962 18.3729 34.3363 18.2702 34.7106 18.099C34.9488 17.9621 35.085 17.6883 35.0509 17.4144V17.346C35.085 16.6614 34.8468 16.011 34.4044 15.5318C33.8599 15.0526 33.1793 14.813 32.4647 14.8472C31.7161 14.813 30.9674 15.0184 30.3549 15.4291C29.8785 15.7714 29.5382 16.2164 29.3 16.7299L26.7818 16.2164C27.054 15.4291 27.4964 14.7103 28.1089 14.1627C28.6874 13.6492 29.368 13.2727 30.0826 13.0331C30.8313 12.7935 31.648 12.6908 32.4307 12.6908C33.0092 12.6908 33.5877 12.7593 34.1662 12.8962C34.7787 13.0331 35.3572 13.2727 35.9017 13.5808C36.4461 13.9573 36.9226 14.4365 37.2288 15.0184C37.6031 15.7714 37.7733 16.6272 37.7393 17.4487V26.5537H35.153V24.671H35.0509C34.8468 25.0476 34.6086 25.3899 34.2683 25.6979C33.8939 26.0744 33.4516 26.3483 32.9411 26.5194C32.3286 26.8275 31.648 26.9302 31.0014 26.8959ZM31.5799 24.7737C32.2265 24.808 32.8731 24.6368 33.4856 24.3288C33.996 24.0549 34.4044 23.6784 34.6766 23.1992C34.9488 22.7542 35.085 22.2065 35.085 21.6931V19.9132C34.9148 20.0501 34.7447 20.1185 34.5405 20.187C34.2342 20.2897 33.928 20.3582 33.6217 20.3924C33.2814 20.4608 32.9411 20.4951 32.6008 20.5293L31.7841 20.632C31.3077 20.7004 30.8313 20.8031 30.3889 20.9743C30.0146 21.1112 29.6403 21.3166 29.368 21.6246C29.0958 21.9327 28.9597 22.3435 28.9937 22.7542C28.9597 23.3361 29.2319 23.918 29.7083 24.2603C30.2528 24.6368 30.8993 24.808 31.5799 24.7737Z" fill="white"></path><path d="M50.8406 16.2164L48.4245 16.6271C48.3224 16.3191 48.1523 16.011 47.9481 15.7372C47.7099 15.4291 47.4036 15.2237 47.0633 15.0526C46.6209 14.8472 46.1445 14.7788 45.6681 14.7788C44.9875 14.7445 44.341 14.9157 43.7965 15.2922C43.3201 15.566 43.0478 16.0452 43.0478 16.5929C43.0478 17.0379 43.218 17.4486 43.5583 17.6882C44.0347 18.0305 44.6132 18.2701 45.1917 18.3728L47.3696 18.8863C48.6287 19.1943 49.5475 19.6393 50.16 20.2212C50.7725 20.8373 51.1128 21.6931 51.0788 22.583C51.0788 23.3703 50.8406 24.1576 50.3642 24.7737C49.8537 25.4583 49.1731 25.9717 48.3905 26.2798C47.4717 26.6563 46.4848 26.8275 45.4639 26.8275C43.9326 26.8275 42.6735 26.4852 41.7207 25.8348C40.7679 25.1845 40.1213 24.1576 39.9512 23.028L42.5374 22.6515C42.6735 23.2676 43.0138 23.8153 43.5243 24.1576C44.1028 24.5341 44.7833 24.7052 45.4639 24.671C46.2126 24.7052 46.9272 24.4999 47.5397 24.1234C48.0161 23.8495 48.3224 23.3361 48.3224 22.7884C48.3224 22.3777 48.1523 21.9669 47.846 21.6931C47.4376 21.3508 46.9272 21.1112 46.4168 21.0427L44.1028 20.5293C42.8437 20.2212 41.8908 19.7762 41.2783 19.1259C40.6658 18.4755 40.3255 17.5856 40.3595 16.6956C40.3595 15.9426 40.5977 15.1895 41.0401 14.5734C41.5165 13.923 42.1631 13.4438 42.9117 13.1358C43.7625 12.7935 44.7153 12.6223 45.6341 12.6223C47.0973 12.6223 48.2543 12.9304 49.1051 13.5807C50.0239 14.2995 50.6024 15.1895 50.8406 16.2164Z" fill="white"></path><path d="M55.1621 26.7596C54.1753 26.7596 53.3926 25.9723 53.3926 24.9797C53.3926 24.5004 53.5968 24.0555 53.903 23.7474C54.5836 23.0628 55.7066 23.0628 56.4212 23.7816C56.9657 24.3293 57.1018 25.2193 56.6934 25.9038C56.5233 26.1777 56.3191 26.383 56.0469 26.5542C55.7746 26.6911 55.4684 26.7596 55.1621 26.7596Z" fill="white"></path><path d="M65.5748 31.9957C64.622 32.03 63.6692 31.8588 62.7844 31.585C62.0698 31.3454 61.4233 30.9689 60.8788 30.4554C60.4024 30.0105 60.028 29.497 59.7898 28.9493L62.0698 27.9909C62.274 28.2648 62.4782 28.5386 62.7164 28.8124C63.0226 29.1205 63.397 29.3943 63.8053 29.5655C64.3838 29.8051 64.9963 29.9078 65.6089 29.8735C66.4936 29.9078 67.3784 29.6682 68.093 29.1547C68.7396 28.6755 69.0799 27.8882 69.0799 26.8271V24.0888H68.9097C68.7055 24.4311 68.5014 24.7734 68.2291 25.0472C67.8888 25.4237 67.4805 25.766 67.0041 25.9714C66.3575 26.2452 65.6769 26.3821 64.9623 26.3821C63.9414 26.3821 62.9205 26.1425 62.0358 25.6291C61.151 25.0814 60.4364 24.2942 59.994 23.37C59.4495 22.2062 59.2113 20.9739 59.2454 19.6732C59.2113 18.3725 59.4495 17.106 59.994 15.908C60.4364 14.9153 61.151 14.0938 62.0358 13.5119C62.9205 12.9643 63.9414 12.6562 64.9623 12.6904C65.6769 12.6562 66.3575 12.7931 67.0041 13.1012C67.4805 13.3408 67.8888 13.6831 68.2291 14.0938C68.4673 14.4019 68.7055 14.7442 68.9097 15.0865H69.1139V12.8616H71.7001V26.8956C71.7342 27.9225 71.4619 28.9151 70.8834 29.7708C70.339 30.5239 69.5563 31.1058 68.6715 31.4481C67.7187 31.8588 66.6638 32.03 65.5748 31.9957ZM65.5408 24.1915C66.2214 24.2257 66.902 24.0203 67.4805 23.6438C68.025 23.2673 68.4673 22.7196 68.7056 22.0693C69.0118 21.282 69.1479 20.4605 69.1479 19.639C69.1479 18.8175 69.0118 17.996 68.7396 17.2087C68.5014 16.5583 68.093 15.9764 67.5485 15.5657C66.3575 14.7784 64.7922 14.7784 63.6011 15.5999C63.0567 16.0449 62.6483 16.6268 62.4101 17.2772C62.1379 18.0302 62.0018 18.8517 62.0018 19.639C62.0018 20.4605 62.1379 21.2478 62.4101 22.0008C62.6483 22.6512 63.0907 23.1988 63.6352 23.5753C64.1456 23.9861 64.8262 24.1915 65.5408 24.1915Z" fill="white"></path><path d="M74.6602 26.5874V12.8615H77.2124V15.0522H77.3485C77.5867 14.3334 78.0291 13.7172 78.6756 13.3065C79.3222 12.8957 80.0708 12.6561 80.8195 12.6561C80.9896 12.6561 81.1938 12.6561 81.398 12.6561C81.6022 12.6561 81.8063 12.6904 81.9425 12.6904V15.2576C81.8404 15.2233 81.6362 15.1891 81.364 15.1549C81.0917 15.1206 80.8195 15.0864 80.5472 15.0864C79.9687 15.0864 79.3902 15.2233 78.8798 15.4972C77.893 16.0106 77.2804 17.0717 77.2804 18.2013V26.5874H74.6602Z" fill="white"></path><path d="M88.9183 26.8963C87.7272 26.9305 86.5702 26.6225 85.5834 26.0063C84.6305 25.4244 83.8479 24.5687 83.3715 23.5418C82.827 22.378 82.5547 21.1115 82.5888 19.8108C82.5547 18.5101 82.827 17.2436 83.3715 16.0798C83.8479 15.053 84.6305 14.1972 85.5834 13.5811C87.6592 12.4173 90.2114 12.4173 92.2872 13.5811C93.24 14.1972 93.9886 15.053 94.4991 16.0798C95.0435 17.2436 95.3158 18.5101 95.2817 19.8108C95.3158 21.0773 95.0435 22.378 94.4991 23.5418C94.0227 24.5687 93.24 25.4244 92.2872 26.0063C91.2323 26.5882 90.0753 26.8963 88.9183 26.8963ZM88.9183 24.6372C89.6669 24.6714 90.3815 24.4318 90.994 23.9868C91.5385 23.5418 91.9809 22.9257 92.2191 22.2411C92.7295 20.6666 92.7295 18.9893 92.2191 17.4148C91.9809 16.7302 91.5725 16.1141 90.994 15.6349C89.769 14.7449 88.1015 14.7449 86.8765 15.6349C86.298 16.1141 85.8896 16.7302 85.6514 17.4148C85.141 18.9893 85.141 20.6666 85.6514 22.2411C85.8896 22.9257 86.298 23.5418 86.8765 23.9868C87.421 24.4318 88.1696 24.6714 88.9183 24.6372Z" fill="white"></path><path d="M106.241 20.9059V12.8621H108.895V26.588H106.275V24.2262H106.139C105.833 24.9792 105.288 25.5954 104.642 26.0403C103.893 26.5538 102.974 26.7934 102.055 26.7591C101.239 26.7591 100.456 26.588 99.7413 26.1772C99.0607 25.7665 98.5162 25.1504 98.1759 24.4316C97.7675 23.5416 97.5634 22.5489 97.5974 21.5905V12.8621H100.252V21.2825C100.218 22.104 100.49 22.8912 101.034 23.5074C101.545 24.055 102.293 24.3631 103.042 24.3289C103.553 24.3289 104.063 24.192 104.539 23.9523C105.05 23.6785 105.458 23.302 105.764 22.8228C106.105 22.2751 106.275 21.5905 106.241 20.9059Z" fill="white"></path><path d="M111.854 31.7566V12.862H114.44V15.0869H114.678C114.882 14.7446 115.12 14.4023 115.359 14.0943C115.699 13.6835 116.107 13.3755 116.55 13.1359C117.196 12.8278 117.877 12.6909 118.591 12.7251C119.646 12.6909 120.667 12.9989 121.552 13.5808C122.437 14.1627 123.151 15.0185 123.594 16.0111C124.104 17.2091 124.376 18.5099 124.342 19.8106C124.376 21.1113 124.138 22.412 123.594 23.61C123.151 24.6027 122.471 25.4584 121.552 26.0403C120.667 26.6222 119.646 26.896 118.625 26.896C117.911 26.9303 117.23 26.7933 116.584 26.4853C116.107 26.2457 115.699 25.9034 115.359 25.4926C115.12 25.1846 114.882 24.8423 114.678 24.5H114.508V31.7908H111.854V31.7566ZM114.44 19.7421C114.44 20.5978 114.576 21.4536 114.848 22.2751C115.086 22.9597 115.495 23.5416 116.039 23.9865C117.23 24.808 118.796 24.808 119.953 23.9523C120.497 23.5073 120.939 22.8912 121.178 22.2066C121.722 20.6321 121.722 18.8864 121.178 17.3118C120.939 16.6272 120.531 16.0453 119.987 15.6004C118.796 14.7789 117.23 14.7789 116.039 15.5661C115.495 16.0111 115.086 16.593 114.848 17.2434C114.576 18.0306 114.44 18.8864 114.44 19.7421Z" fill="white"></path><path d="M145.477 27.2037C145.136 27.2037 144.796 27.0668 144.524 26.793C143.979 26.2453 143.979 25.3896 144.524 24.8419L154.256 15.0523C155.618 13.6832 156.366 11.869 156.366 9.95216C156.366 8.03532 155.618 6.22117 154.256 4.852C151.466 2.0452 146.906 2.0452 144.116 4.852L134.383 14.6416C133.839 15.1892 132.988 15.1892 132.444 14.6416C131.899 14.0939 131.899 13.2382 132.444 12.6905L142.176 2.90093C146.021 -0.966977 152.317 -0.966977 156.162 2.90093C158.034 4.78354 159.055 7.28228 159.055 9.95216C159.055 12.622 158.034 15.1208 156.162 17.0034L146.43 26.793C146.191 27.0668 145.851 27.2037 145.477 27.2037Z" fill="url(#paint0_linear_257_14220)"></path><path d="M139.454 27.2043C139.113 27.2043 138.773 27.0674 138.501 26.7936C137.956 26.2459 137.956 25.3902 138.501 24.8425L151.262 12.0065C152.385 10.877 152.385 9.02857 151.262 7.86478C150.139 6.73521 148.267 6.73521 147.144 7.86478L134.383 20.7008C133.839 21.2484 132.988 21.2484 132.444 20.7008C131.899 20.1531 131.899 19.2974 132.444 18.7497L145.239 5.94794C147.416 3.75726 150.99 3.75726 153.201 5.94794C155.413 8.13861 155.413 11.7327 153.201 13.9576L140.406 26.7936C140.134 27.0674 139.794 27.2043 139.454 27.2043Z" fill="url(#paint1_linear_257_14220)"></path><path d="M133.43 27.2039C133.089 27.2039 132.749 27.0669 132.477 26.7931C131.932 26.2454 131.932 25.3897 132.477 24.842L148.232 8.99388C148.777 8.44621 149.628 8.44621 150.172 8.99388C150.716 9.54155 150.716 10.3973 150.172 10.9449L134.382 26.8273C134.11 27.0669 133.77 27.2039 133.43 27.2039Z" fill="url(#paint2_linear_257_14220)"></path><defs><linearGradient id="paint0_linear_257_14220" x1="138.488" y1="20.7302" x2="156.291" y2="3.03133" gradientUnits="userSpaceOnUse"><stop stop-color="#E15A32"></stop><stop offset="1" stop-color="#B28CFF"></stop></linearGradient><linearGradient id="paint1_linear_257_14220" x1="135.478" y1="23.7733" x2="153.29" y2="6.06557" gradientUnits="userSpaceOnUse"><stop stop-color="#E15A32"></stop><stop offset="1" stop-color="#B28CFF"></stop></linearGradient><linearGradient id="paint2_linear_257_14220" x1="132.456" y1="26.802" x2="150.266" y2="9.09612" gradientUnits="userSpaceOnUse"><stop stop-color="#E15A32"></stop><stop offset="1" stop-color="#B28CFF"></stop></linearGradient></defs></svg> 